<svg xmlns="http://www.w3.org/2000/svg" width="101.719" height="99" viewBox="0 0 101.719 99">
  <g id="Group_19120" data-name="Group 19120" transform="translate(-795 -341)">
    <path id="Path_2283" data-name="Path 2283" d="M103.728,99.253a12.714,12.714,0,1,0,12.72,12.716A12.714,12.714,0,0,0,103.728,99.253Zm0,23.006a10.292,10.292,0,1,1,10.3-10.294,10.292,10.292,0,0,1-10.3,10.294Z" transform="translate(759.09 300.482)" fill="#1abc9c"/>
    <path id="Path_2284" data-name="Path 2284" d="M112.7,115.49h-3.028v-3.027a1.211,1.211,0,1,0-2.423,0v3.027h-3.028a1.211,1.211,0,1,0,0,2.422h3.028v3.027a1.211,1.211,0,1,0,2.423,0v-3.027H112.7a1.211,1.211,0,1,0,0-2.422Z" transform="translate(754.36 295.748)" fill="#1abc9c"/>
    <circle id="Ellipse_757" data-name="Ellipse 757" cx="1.211" cy="1.211" r="1.211" transform="translate(795 429.102)" fill="#193755"/>
    <path id="Path_2285" data-name="Path 2285" d="M9.027,147.755H7.211a1.211,1.211,0,0,0,0,2.422H9.027a1.211,1.211,0,0,0,0-2.422Z" transform="translate(792.633 281.347)" fill="#193755"/>
    <path id="Path_2286" data-name="Path 2286" d="M158.027,147.755h-1.816a1.211,1.211,0,0,0,0,2.422h1.816a1.211,1.211,0,0,0,0-2.422Z" transform="translate(733.848 281.347)" fill="#193755"/>
    <circle id="Ellipse_758" data-name="Ellipse 758" cx="1.211" cy="1.211" r="1.211" transform="translate(894.297 429.102)" fill="#193755"/>
    <path id="Path_2287" data-name="Path 2287" d="M114.148,155.755h-5.03a1.215,1.215,0,0,0,0,2.422h5.03a1.215,1.215,0,0,0,0-2.422Z" transform="translate(752.391 278.19)" fill="#1abc9c"/>
    <path id="Path_2288" data-name="Path 2288" d="M54.148,155.755h-5.03a1.215,1.215,0,0,0,0,2.422h5.03a1.215,1.215,0,0,0,0-2.422Z" transform="translate(776.063 278.19)" fill="#1abc9c"/>
    <path id="Path_2289" data-name="Path 2289" d="M87.43,155.755H63.211a1.211,1.211,0,1,0,0,2.422h9.651v1.211H68.055a1.211,1.211,0,0,0,0,2.422H83.191a1.211,1.211,0,0,0,0-2.422H77.778v-1.211H87.43a1.211,1.211,0,0,0,0-2.422Z" transform="translate(770.539 278.19)" fill="#1abc9c"/>
    <path id="Path_2290" data-name="Path 2290" d="M97.175,103.367H59.911l4.657-4.618a15.264,15.264,0,0,1-1.805-1.623l-5.985,5.935-30.049-29.8a21.176,21.176,0,0,1-4.976-7.738H39.158c1.308,0,3.328-.585,3.919-1.926l3.936-8.971h.027l5.3,15.605a2.525,2.525,0,0,0,4.153.442l7.641-11.452a.587.587,0,0,1,.141,0l3.691,4.658a4.746,4.746,0,0,0,3.129,1.642H91.8a21.176,21.176,0,0,1-4.976,7.738L84.24,75.828a15.264,15.264,0,0,1,1.61,1.815l2.684-2.661c9.069-8.995,9.356-23.633.638-32.631a23.4,23.4,0,0,0-30.873-2.4,2.5,2.5,0,0,1-3.043,0,23.4,23.4,0,0,0-30.873,2.4c-8.718,9-8.431,23.636.638,32.631l28.623,28.385H16.38a1.221,1.221,0,1,0,0,2.422h80.8a1.221,1.221,0,1,0,0-2.422ZM26.123,44.036a21.219,21.219,0,0,1,27.672-2.15,4.9,4.9,0,0,0,5.965,0,20.974,20.974,0,0,1,27.672,2.15,20.507,20.507,0,0,1,5.1,19.066H71.093a2.7,2.7,0,0,1-1.253-.751l-3.77-4.759a2.578,2.578,0,0,0-3.834.109L54.594,69.154a.291.291,0,0,1-.061,0l-5.3-15.606a2.417,2.417,0,0,0-2.924-1.242,2.132,2.132,0,0,0-1.409,1.1L40.913,62.5a1.891,1.891,0,0,1-1.755.6H21.026a20.507,20.507,0,0,1,5.1-19.066Z" transform="translate(789.082 325.735)" fill="#193755"/>
    <path id="Path_2291" data-name="Path 2291" d="M67.121,5.878A1.816,1.816,0,1,0,65.3,4.062a1.816,1.816,0,0,0,1.816,1.816Zm0-2.725a.908.908,0,1,1-.908.908.908.908,0,0,1,.908-.908Z" transform="translate(769.235 338.755)" fill="#193755"/>
    <path id="Path_2292" data-name="Path 2292" d="M161.211,36.159a1.211,1.211,0,1,0,1.211,1.211A1.211,1.211,0,0,0,161.211,36.159Zm0,1.816a.605.605,0,1,1,.605-.605A.605.605,0,0,1,161.211,37.975Z" transform="translate(731.875 325.375)" fill="#193755"/>
    <path id="Path_2293" data-name="Path 2293" d="M134.228,30.245a1.211,1.211,0,1,0,1.211,1.211A1.211,1.211,0,0,0,134.228,30.245Zm0,1.816a.605.605,0,1,1,.605-.605A.605.605,0,0,1,134.228,32.062Z" transform="translate(742.521 327.708)" fill="#193755"/>
    <path id="Path_2294" data-name="Path 2294" d="M145.208,6.245a1.211,1.211,0,1,0,1.211,1.211,1.211,1.211,0,0,0-1.211-1.211Zm0,1.816a.605.605,0,1,1,.605-.605A.605.605,0,0,1,145.208,8.062Z" transform="translate(738.188 337.177)" fill="#193755"/>
    <path id="Path_2295" data-name="Path 2295" d="M29.422,31.456a1.211,1.211,0,1,0-1.211,1.211,1.211,1.211,0,0,0,1.211-1.211Zm-1.816,0a.605.605,0,1,1,.605.605A.605.605,0,0,1,27.605,31.456Z" transform="translate(784.348 327.708)" fill="#193755"/>
    <path id="Path_2296" data-name="Path 2296" d="M9.628,68.275l.9-1.184-.569-.322-.578,1.326H9.363l-.587-1.317L8.2,67.11l.891,1.156v.019L7.7,68.1v.644l1.4-.18v.019l-.9,1.155.539.341.616-1.336h.019l.569,1.326.6-.341L9.628,68.6v-.019l1.43.171V68.1l-1.43.19Z" transform="translate(791.964 313.298)" fill="#1abc9c"/>
    <path id="Path_2297" data-name="Path 2297" d="M6.9,9.715l-.518.665.311.2.355-.77h.011l.328.764.343-.2-.524-.655V9.71l.824.1V9.438l-.824.109V9.536l.519-.682L7.4,8.668l-.333.764H7.056l-.338-.759-.333.191L6.9,9.53v.011l-.8-.1v.371L6.9,9.7Z" transform="translate(792.595 336.221)" fill="#1abc9c"/>
    <path id="Path_2298" data-name="Path 2298" d="M114.575,6V5.369l-1.4.186V5.536l.883-1.161-.558-.316-.567,1.3h-.019l-.575-1.292-.568.326.874,1.133v.019l-1.367-.177V6l1.376-.177v.019l-.883,1.133.53.335L112.9,6h.018l.558,1.3.586-.334-.892-1.115V5.834Z" transform="translate(751.098 338.039)" fill="#1abc9c"/>
    <path id="Path_2299" data-name="Path 2299" d="M89.163,26.886l.762-1-.481-.272-.489,1.122h-.016l-.5-1.114-.489.28.754.978v.016l-1.179-.153v.545l1.187-.152v.016l-.762.978.457.289.521-1.13h.016l.481,1.123.5-.289-.77-.962v-.016l1.21.144v-.545l-1.21.16Z" transform="translate(760.468 329.536)" fill="#1abc9c"/>
  </g>
</svg>
