<svg width="24" height="24" viewBox="0 0 24 24" fill="none" xmlns="http://www.w3.org/2000/svg">
<path d="M9.60551 8.06486C9.81408 7.83285 9.79533 7.47898 9.56332 7.2704C9.33132 7.06183 8.97744 7.08058 8.76887 7.31259L7.47993 8.74448L6.96202 8.22656C6.74172 8.00861 6.38551 8.00861 6.16522 8.22656C5.94493 8.44451 5.94493 8.80307 6.16522 9.02101L7.10263 9.95842C7.21277 10.0686 7.36041 10.1272 7.51509 10.1225C7.66976 10.1178 7.81506 10.0522 7.91817 9.93733L9.60551 8.06251V8.06486ZM9.60551 11.8145C9.81408 11.5825 9.79533 11.2286 9.56332 11.02C9.33132 10.8115 8.97744 10.8302 8.76887 11.0622L7.47993 12.4941L6.96202 11.9762C6.74172 11.7559 6.38551 11.7559 6.16756 11.9762C5.94961 12.1965 5.94727 12.5527 6.16756 12.7706L7.10497 13.7081C7.21512 13.8182 7.36276 13.8768 7.51743 13.8721C7.6721 13.8674 7.8174 13.8018 7.92052 13.687L9.60785 11.8121L9.60551 11.8145ZM11.0632 9.1874H17.4376C17.7492 9.1874 18 8.93665 18 8.62496C18 8.31327 17.7492 8.06251 17.4376 8.06251H11.0632C10.7515 8.06251 10.5007 8.31327 10.5007 8.62496C10.5007 8.93665 10.7515 9.1874 11.0632 9.1874ZM10.5007 12.3746C10.5007 12.6863 10.7515 12.937 11.0632 12.937H17.4376C17.7492 12.937 18 12.6863 18 12.3746C18 12.0629 17.7492 11.8121 17.4376 11.8121H11.0632C10.7515 11.8121 10.5007 12.0629 10.5007 12.3746ZM9.75081 16.1242C9.75081 16.4359 10.0016 16.6867 10.3133 16.6867H17.4376C17.7492 16.6867 18 16.4359 18 16.1242C18 15.8125 17.7492 15.5618 17.4376 15.5618H10.3133C10.0016 15.5618 9.75081 15.8125 9.75081 16.1242ZM8.25095 16.1242C8.25095 15.9253 8.17194 15.7346 8.0313 15.5939C7.89067 15.4533 7.69992 15.3743 7.50103 15.3743C7.30213 15.3743 7.11139 15.4533 6.97075 15.5939C6.83011 15.7346 6.7511 15.9253 6.7511 16.1242C6.7511 16.3231 6.83011 16.5139 6.97075 16.6545C7.11139 16.7951 7.30213 16.8742 7.50103 16.8742C7.69992 16.8742 7.89067 16.7951 8.0313 16.6545C8.17194 16.5139 8.25095 16.3231 8.25095 16.1242Z" fill="#03A9F4"/>
<rect x="0.5" y="0.5" width="23" height="23" rx="11.5" stroke="#03A9F4"/>
</svg>
