<?xml version="1.0" encoding="UTF-8"?>
<svg id="Layer_2" data-name="Layer 2" xmlns="http://www.w3.org/2000/svg" viewBox="0 0 559 513.5">
  <defs>
    <style>
      .cls-1 {
        fill: #193755;
      }

      .cls-2 {
        fill: #2d4356;
      }

      .cls-3 {
        fill: #1abc9c;
      }
    </style>
  </defs>
  <g id="Layer_1-2" data-name="Layer 1">
    <path class="cls-2" d="m262.86,435.31c44.1,0,79.86-35.75,79.86-79.86s-35.75-79.86-79.86-79.86-79.85,35.75-79.86,79.85c0,44.11,35.75,79.86,79.86,79.86Zm0-146.4c36.75,0,66.55,29.79,66.55,66.55s-29.79,66.55-66.55,66.55-66.55-29.79-66.55-66.55h0c.04-36.74,29.81-66.51,66.55-66.55Z"/>
    <path class="cls-1" d="m74.55,199.66c1.64-7.1,8.63-11.61,15.78-10.18l224.19,45.14h68.14l-289.74-58.34c-10.96-2.2-22.13,2.62-28.05,12.1-1.56,2.67-2.68,5.58-3.31,8.61l-9.15,45.86c4.42-3.41,9.52-5.85,14.95-7.14,0,0,7.19-36.03,7.19-36.05Z"/>
    <path class="cls-2" d="m240.17,383.69c3.42,5.82,9.35,9.71,16.04,10.54v8.87c0,3.08,3.71,5.58,6.65,5.58s6.65-2.5,6.65-5.58v-8.79c3.99-.6,7.77-2.18,11-4.59,4.74-3.04,7.93-7.97,8.77-13.53,1.56-10.29-4.74-20.14-14.74-23.05-2.11-.64-2.9-1.3-5.03-1.92v-20.81c1.44.55,2.75,1.4,3.83,2.5,2.5,2.04,4.37,4.75,5.4,7.8.71,2.46,2.54,4.43,4.93,5.34,2.49.62,5-.9,5.62-3.39.03-.13.06-.25.08-.38.26-4.37-1.11-8.69-3.84-12.11-1.79-2.73-4.13-5.06-6.89-6.82-2.72-1.93-5.84-3.24-9.13-3.82v-11.72c0-3.09-3.72-5.59-6.65-5.59s-6.65,2.5-6.65,5.59v11.54c-.94.14-.53.34-1.42.59-7.54,2.16-14.6,7.11-16.34,15.43-1.56,5.9-.29,12.19,3.43,17.02,3.83,4.07,8.84,6.82,14.32,7.87v23.17c-2.8-.92-5.18-2.83-6.69-5.36-1.81-2.53-2.49-5.72-4.43-8.19-1.49-2.23-4.51-2.83-6.74-1.34-.6.4-1.11.94-1.48,1.56-.96,2.88-.74,6.01.61,8.73.75,1.7,1.64,3.33,2.67,4.87Zm29.35-20.83c1.03.31.71.63,1.7,1.01,5.36,1.76,8.28,7.53,6.51,12.89-.36,1.11-.91,2.14-1.63,3.06-1.48,2.33-3.87,3.93-6.59,4.41v-21.37Zm-19.85-19.68c-3.13-5.44,1.74-11.09,6.54-12.83v18.15c-2.87-.7-5.28-2.65-6.54-5.32Z"/>
    <path class="cls-1" d="m63.22,166.96c4.61-2.94,9.76-4.93,15.15-5.86l3.43-14.96c1.24-5.72,6.29-9.8,12.14-9.83.99,0,358.64,88.13,358.64,88.13,5.81,1.5,9.86,6.76,9.8,12.77,4.57.96,8.95,2.69,12.94,5.11,2.79-13.99-5.81-27.73-19.61-31.33,0,0-355.44-87.72-355.64-87.76-11.54-2.84-23.51,2.71-28.8,13.36-1.72,3.71-7.8,29.23-8.05,30.36Z"/>
    <path class="cls-1" d="m296.14,150.82c5.51,0,9.98-4.47,9.98-9.98s-4.47-9.98-9.98-9.98-9.98,4.47-9.98,9.98c0,5.51,4.47,9.98,9.98,9.98Zm0-14.97c2.76,0,4.99,2.23,4.99,4.99s-2.23,4.99-4.99,4.99-4.99-2.23-4.99-4.99c0-2.76,2.24-4.99,4.99-4.99Z"/>
    <path class="cls-1" d="m259.54,67.63c3.68,0,6.65-2.98,6.65-6.65s-2.98-6.65-6.65-6.65-6.65,2.98-6.65,6.65c0,3.67,2.98,6.65,6.65,6.65Zm0-9.98c1.84,0,3.33,1.49,3.33,3.33s-1.49,3.33-3.33,3.33-3.33-1.49-3.33-3.33c0-1.84,1.49-3.33,3.33-3.33Z"/>
    <path class="cls-1" d="m412.6,67.63c5.51,0,9.98-4.47,9.98-9.98s-4.47-9.98-9.98-9.98-9.98,4.47-9.98,9.98c0,5.51,4.47,9.98,9.98,9.98Zm0-14.97c2.76,0,4.99,2.23,4.99,4.99s-2.23,4.99-4.99,4.99-4.99-2.23-4.99-4.99c0-2.76,2.24-4.99,4.99-4.99Z"/>
    <path class="cls-1" d="m532.38,200.73c0-5.51-4.47-9.98-9.98-9.98s-9.98,4.47-9.98,9.98,4.47,9.98,9.98,9.98c5.51,0,9.98-4.47,9.98-9.98Zm-14.97,0c0-2.76,2.23-4.99,4.99-4.99s4.99,2.23,4.99,4.99-2.23,4.99-4.99,4.99c-2.76,0-4.99-2.24-4.99-4.99Z"/>
    <path class="cls-1" d="m66.55,57.65c3.68,0,6.65-2.98,6.65-6.65s-2.98-6.65-6.65-6.65-6.65,2.98-6.65,6.65c0,3.67,2.98,6.65,6.65,6.65Zm0-9.98c1.84,0,3.33,1.49,3.33,3.33s-1.49,3.33-3.33,3.33-3.33-1.49-3.33-3.33c0-1.84,1.49-3.33,3.33-3.33Z"/>
    <circle class="cls-1" cx="6.65" cy="456.94" r="6.65"/>
    <path class="cls-1" d="m36.6,450.28h-9.98c-3.68,0-6.65,2.98-6.65,6.65s2.98,6.65,6.65,6.65h9.98c3.68,0,6.65-2.98,6.65-6.65s-2.98-6.65-6.65-6.65Z"/>
    <path class="cls-1" d="m532.38,450.28h-9.98c-3.68,0-6.65,2.98-6.65,6.65s2.98,6.65,6.65,6.65h9.98c3.68,0,6.65-2.98,6.65-6.65s-2.98-6.65-6.65-6.65Z"/>
    <circle class="cls-1" cx="552.35" cy="456.94" r="6.65"/>
    <path class="cls-1" d="m501.51,450.28h-30.31c3.01-4.41,4.62-9.63,4.61-14.97v-159.71c0-14.7-11.92-26.62-26.62-26.62H76.53c-14.7,0-26.62,11.92-26.62,26.62v159.71c0,5.53,1.73,10.92,4.94,15.41-2.82.78-4.82,3.29-4.94,6.22.27,3.92,3.66,6.89,7.58,6.65h444.01c3.68.48,7.04-2.11,7.52-5.79s-2.11-7.04-5.79-7.52c-.58-.08-1.16-.08-1.74,0ZM63.22,275.59c0-7.35,5.96-13.3,13.31-13.31h372.67c7.35,0,13.3,5.96,13.31,13.31v159.71c0,7.35-5.96,13.3-13.31,13.31H76.53c-7.35,0-13.3-5.96-13.31-13.31v-159.71Z"/>
    <path class="cls-3" d="m169.7,422c0-3.68-2.98-6.65-6.65-6.65h-21.96c-2.34-8.1-7.46-15.13-14.46-19.83-7.04-4.36-15.2-6.57-23.47-6.35v-67.42c8.27.21,16.43-2,23.47-6.35,7-4.71,12.12-11.73,14.46-19.83h21.96c3.68,0,6.65-2.98,6.65-6.65s-2.98-6.65-6.65-6.65h-27.11c-3.17,0-5.89,2.23-6.52,5.33-5.05,24.92-28.89,20.92-31.56,20.4-3.6-.75-7.12,1.56-7.87,5.15-.09.45-.14.9-.14,1.36v81.9c.01,3.69,3.01,6.66,6.7,6.65.43,0,.86-.04,1.28-.13,2.71-.53,26.53-4.52,31.59,20.4.63,3.1,3.36,5.33,6.52,5.33h27.11c3.68,0,6.65-2.98,6.65-6.65Z"/>
    <path class="cls-3" d="m427.88,307.98c-7.36,1.27-14.94-.04-21.45-3.7-5.51-3.96-9.16-9.99-10.12-16.7-.63-3.1-3.36-5.33-6.52-5.33h-27.11c-3.68,0-6.65,2.98-6.65,6.65s2.98,6.65,6.65,6.65h21.96c2.34,8.1,7.46,15.13,14.46,19.83,7.04,4.35,15.2,6.56,23.47,6.35v67.42c-8.27-.21-16.43,1.99-23.47,6.35-7,4.71-12.12,11.73-14.46,19.83h-21.96c-3.68,0-6.65,2.98-6.65,6.65s2.98,6.65,6.65,6.65h27.11c3.17,0,5.89-2.23,6.52-5.33,5.05-24.92,28.89-20.93,31.56-20.4,3.6.75,7.12-1.56,7.87-5.15.09-.45.14-.9.14-1.36v-81.9c0-3.67-2.97-6.65-6.64-6.65-.46,0-.91.05-1.36.14Z"/>
    <polygon class="cls-3" points="32.67 205.08 37.24 199.08 34.36 197.44 31.43 204.17 31.33 204.17 28.35 197.49 25.41 199.17 29.94 205.04 29.94 205.13 22.87 204.22 22.87 207.49 29.98 206.58 29.98 206.67 25.41 212.53 28.16 214.26 31.28 207.49 31.37 207.49 34.26 214.22 37.29 212.49 32.67 206.72 32.67 206.62 39.93 207.49 39.93 204.22 32.67 205.18 32.67 205.08"/>
    <polygon class="cls-3" points="146.5 109.34 141.57 115.67 144.53 117.54 147.91 110.22 148.01 110.22 151.12 117.49 154.39 115.62 149.41 109.39 149.41 109.29 157.25 110.22 157.25 106.69 149.41 107.73 149.41 107.63 154.34 101.14 151.23 99.37 148.06 106.64 147.96 106.64 144.74 99.43 141.57 101.24 146.45 107.58 146.45 107.68 138.82 106.69 138.82 110.22 146.5 109.24 146.5 109.34"/>
    <polygon class="cls-3" points="178.94 34.58 176.08 38.24 177.8 39.32 179.75 35.09 179.81 35.09 181.6 39.29 183.49 38.21 180.61 34.61 180.61 34.55 185.14 35.09 185.14 33.05 180.61 33.65 180.61 33.59 183.46 29.84 181.67 28.83 179.83 33.02 179.78 33.02 177.92 28.85 176.08 29.9 178.91 33.56 178.91 33.62 174.5 33.05 174.5 35.09 178.94 34.52 178.94 34.58"/>
    <polygon class="cls-3" points="402.02 152.32 397.17 158.55 400.08 160.39 403.41 153.19 403.5 153.19 406.57 160.34 409.79 158.5 404.89 152.37 404.89 152.27 412.6 153.19 412.6 149.72 404.89 150.74 404.89 150.64 409.74 144.26 406.68 142.52 403.56 149.67 403.45 149.67 400.29 142.57 397.17 144.36 401.97 150.59 401.97 150.69 394.47 149.72 394.47 153.19 402.02 152.22 402.02 152.32"/>
    <polygon class="cls-3" points="519.07 109.93 519.07 106.46 511.36 107.48 511.36 107.38 516.22 101 513.15 99.26 510.04 106.41 509.93 106.41 506.77 99.31 503.65 101.1 508.45 107.33 508.45 107.43 500.94 106.46 500.94 109.93 508.5 108.97 508.5 109.07 503.65 115.3 506.56 117.14 509.88 109.93 509.98 109.93 513.05 117.08 516.26 115.25 511.36 109.12 511.36 109.01 519.07 109.93"/>
    <polygon class="cls-3" points="321.87 7.75 318.03 12.68 320.33 14.13 322.96 8.44 323.04 8.44 325.46 14.09 328.01 12.64 324.13 7.79 324.13 7.71 330.23 8.44 330.23 5.69 324.13 6.5 324.13 6.42 327.97 1.37 325.55 0 323.09 5.65 323 5.65 320.5 .04 318.03 1.45 321.83 6.38 321.83 6.46 315.89 5.69 315.89 8.44 321.87 7.67 321.87 7.75"/>
    <path class="cls-3" d="m393.14,480.23h-27.64c-3.68.29-6.42,3.51-6.12,7.19.26,3.27,2.86,5.86,6.12,6.12h27.64c3.68-.29,6.42-3.51,6.12-7.19-.26-3.27-2.86-5.86-6.12-6.12Z"/>
    <path class="cls-3" d="m193.5,480.23h-27.64c-3.68.29-6.42,3.51-6.12,7.19.26,3.27,2.86,5.86,6.12,6.12h27.64c3.68-.29,6.42-3.51,6.12-7.19-.26-3.27-2.86-5.86-6.12-6.12Z"/>
    <path class="cls-3" d="m346.05,480.23h-133.1c-3.68,0-6.65,2.98-6.65,6.65s2.98,6.65,6.65,6.65h53.04v6.65h-26.42c-3.68,0-6.65,2.98-6.65,6.65s2.98,6.65,6.65,6.65h83.18c3.68,0,6.65-2.98,6.65-6.65s-2.98-6.65-6.65-6.65h-29.75v-6.65h53.04c3.68,0,6.65-2.98,6.65-6.65s-2.98-6.65-6.65-6.65Z"/>
  </g>
</svg>