<?xml version="1.0" encoding="UTF-8"?>
<svg id="Layer_2" data-name="Layer 2" xmlns="http://www.w3.org/2000/svg" viewBox="0 0 416.93 407">
  <defs>
    <style>
      .cls-1 {
        fill: #1abc9c;
      }

      .cls-1, .cls-2 {
        stroke-width: 0px;
      }

      .cls-2 {
        fill: #193755;
      }
    </style>
  </defs>
  <g id="Layer_1-2" data-name="Layer 1">
    <path class="cls-2" d="m199.3,252.89c.89,5.06,5.72,8.44,10.79,7.55,3.85-.68,6.87-3.7,7.55-7.55h0s19.93-97.93,19.93-97.93c2.04-9.67-.39-19.75-6.62-27.43-9.82-12.42-27.84-14.52-40.26-4.7-1.75,1.38-3.32,2.96-4.7,4.7-6.23,7.68-8.66,17.76-6.62,27.43l19.93,97.94Zm-5.63-119.08c6.35-8.17,18.13-9.64,26.3-3.29,1.23.96,2.33,2.06,3.29,3.29,4.34,5.37,6.02,12.42,4.57,19.17l-19.37,95.18-19.37-95.18c-1.44-6.75.24-13.79,4.57-19.17Z"/>
    <path class="cls-2" d="m208.46,270.51c-10.96,0-19.85,8.89-19.85,19.85s8.89,19.85,19.85,19.85,19.85-8.89,19.85-19.85c-.01-10.96-8.89-19.84-19.85-19.85Zm0,29.78c-5.48,0-9.93-4.44-9.93-9.93s4.44-9.93,9.93-9.93,9.93,4.44,9.93,9.93c0,5.48-4.45,9.92-9.93,9.93Z"/>
    <path class="cls-2" d="m101.21,259.34c-1.08-2.52-4-3.69-6.52-2.61s-3.69,4-2.61,6.52c1.33,3.11,2.81,6.2,4.39,9.19,1.31,2.39,4.28,3.31,6.71,2.07,2.42-1.28,3.35-4.28,2.07-6.7h0c-1.45-2.76-2.82-5.61-4.04-8.47Z"/>
    <path class="cls-1" d="m115.31,283.63c-1.65-2.19-4.76-2.62-6.95-.97s-2.62,4.76-.97,6.95c2.03,2.69,4.21,5.34,6.46,7.88,1.85,1.99,4.94,2.17,7.01.41,2.05-1.82,2.23-4.96.41-7.01-2.08-2.34-4.08-4.78-5.95-7.27Z"/>
    <path class="cls-2" d="m151.67,105.76c-1.38-2.37-4.42-3.17-6.79-1.79-2.92,1.7-5.81,3.54-8.59,5.47-2.25,1.57-2.81,4.66-1.24,6.91,1.56,2.25,4.66,2.81,6.91,1.24,2.56-1.78,5.23-3.48,7.92-5.05,2.37-1.38,3.17-4.42,1.79-6.79Z"/>
    <path class="cls-2" d="m142.33,309.52c-2.58-1.78-5.11-3.68-7.51-5.64-2.12-1.73-5.25-1.42-6.98.7-1.73,2.12-1.42,5.25.7,6.98,0,0,0,0,0,0,2.61,2.13,5.35,4.19,8.15,6.12,2.27,1.51,5.32.95,6.9-1.27,1.56-2.26.99-5.35-1.27-6.9Z"/>
    <path class="cls-2" d="m321.63,185.06c.75,3.02,1.4,6.12,1.9,9.19.45,2.7,3,4.53,5.71,4.09s4.53-3,4.09-5.71c-.55-3.34-1.25-6.69-2.07-9.98-.65-2.66-3.34-4.3-6-3.65-2.66.65-4.3,3.34-3.65,6,0,.02,0,.03.01.05h0Z"/>
    <path class="cls-1" d="m117.24,137.95c1.42,0,2.78-.6,3.73-1.66,2.06-2.33,4.24-4.62,6.49-6.79,1.97-1.9,2.03-5.05.12-7.02-1.9-1.97-5.05-2.03-7.02-.12-2.44,2.36-4.81,4.83-7.04,7.36-1.81,2.04-1.63,5.16.41,6.98.91.81,2.09,1.26,3.31,1.25h0Z"/>
    <path class="cls-2" d="m193.43,97.71c.2,0,.41-.01.61-.04,3.1-.38,6.25-.64,9.36-.78,2.74-.12,4.86-2.43,4.75-5.17-.12-2.74-2.43-4.86-5.17-4.75-3.37.14-6.79.43-10.15.84-2.72.34-4.65,2.81-4.32,5.53.31,2.49,2.42,4.35,4.92,4.36Z"/>
    <path class="cls-1" d="m95.24,241.56c-.75-3.01-1.38-6.11-1.89-9.19-.44-2.71-2.99-4.54-5.7-4.1-2.71.44-4.54,2.99-4.1,5.7.55,3.35,1.23,6.71,2.05,9.98.66,2.66,3.35,4.28,6.01,3.62,2.66-.66,4.28-3.35,3.62-6.01Z"/>
    <path class="cls-1" d="m222.16,97.58c3.09.36,6.21.85,9.27,1.46,2.69.54,5.3-1.2,5.85-3.88.54-2.69-1.2-5.3-3.88-5.85,0,0-.01,0-.02,0-3.32-.66-6.71-1.2-10.06-1.59-2.72-.31-5.18,1.64-5.5,4.36-.31,2.72,1.63,5.18,4.35,5.5Z"/>
    <path class="cls-2" d="m91.82,213.68v-.25c0-3.05.12-6.13.35-9.15.21-2.73-1.83-5.12-4.57-5.33s-5.12,1.83-5.33,4.57c-.25,3.27-.38,6.61-.38,9.91v.25c0,2.74,2.22,4.96,4.96,4.96s4.96-2.22,4.96-4.96Z"/>
    <path class="cls-1" d="m315.62,167.29c1.11,2.49,4,3.64,6.52,2.6,2.52-1.08,3.68-4,2.6-6.52h0c-1.33-3.1-2.82-6.19-4.4-9.19-1.29-2.42-4.29-3.34-6.71-2.05-2.42,1.29-3.34,4.28-2.06,6.7,1.46,2.76,2.83,5.61,4.06,8.46Z"/>
    <path class="cls-2" d="m98.34,161.55c2.43,1.22,5.4.29,6.7-2.1,1.44-2.76,3.02-5.5,4.68-8.14,1.46-2.32.76-5.39-1.57-6.84-2.32-1.45-5.37-.76-6.83,1.55-1.81,2.87-3.52,5.85-5.08,8.84-1.27,2.43-.33,5.43,2.1,6.7,0,0,0,0,0,0Z"/>
    <path class="cls-1" d="m89.13,189.4c2.66.62,5.33-1,6-3.65.74-3.04,1.61-6.07,2.59-9.02.86-2.6-.55-5.41-3.15-6.27-2.6-.86-5.41.55-6.27,3.15h0c-1.06,3.2-2.01,6.5-2.81,9.8-.65,2.66.99,5.35,3.65,6,0,0,0,0,0,0Z"/>
    <path class="cls-2" d="m309.38,137.04c-2.03-2.69-4.21-5.33-6.47-7.87-1.83-2.04-4.97-2.22-7.01-.39-2.04,1.83-2.22,4.96-.4,7,2.09,2.34,4.09,4.77,5.97,7.25,1.68,2.15,4.76,2.57,6.95.96,2.18-1.66,2.61-4.77.96-6.95Z"/>
    <path class="cls-1" d="m318.48,265.52c-2.42-1.28-5.42-.35-6.7,2.08h0c-1.45,2.76-3.03,5.5-4.7,8.14-1.47,2.32-.78,5.38,1.54,6.85,0,0,0,0,0,0,2.32,1.43,5.36.75,6.85-1.54,1.81-2.86,3.53-5.83,5.1-8.82,1.28-2.43.34-5.43-2.08-6.7,0,0,0,0,0,0Z"/>
    <path class="cls-2" d="m295.8,290.74c-2.07,2.34-4.26,4.61-6.51,6.78-1.98,1.9-2.04,5.04-.14,7.02,1.92,1.94,5.03,2,7.02.14,2.43-2.34,4.81-4.81,7.05-7.35,1.82-2.05,1.64-5.18-.41-7.01-2.05-1.82-5.18-1.64-7.01.41,0,0,0,0-.01.01h0Z"/>
    <path class="cls-1" d="m288.19,115.12c-2.63-2.14-5.37-4.19-8.17-6.1-2.26-1.55-5.35-.98-6.9,1.29-1.55,2.26-.98,5.35,1.29,6.9h0c2.57,1.76,5.1,3.65,7.52,5.62,2.14,1.69,5.24,1.37,6.98-.72,1.73-2.13,1.41-5.25-.72-6.98Z"/>
    <path class="cls-1" d="m335.03,213.16v-.26c-.04-2.64-2.22-4.74-4.86-4.7-.05,0-.09,0-.14,0-2.78.13-4.96,2.44-4.93,5.23,0,3.13-.12,6.28-.37,9.38-.22,2.73,1.82,5.13,4.55,5.34,2.72.19,5.1-1.84,5.34-4.55.27-3.36.4-6.78.4-10.17v-.27Z"/>
    <path class="cls-2" d="m327.75,237.69c-2.66-.65-5.35.98-6,3.64-.74,3.02-1.62,6.06-2.61,9.02-.87,2.6.54,5.41,3.14,6.28,2.6.87,5.41-.54,6.28-3.14h0c1.07-3.21,2.02-6.51,2.83-9.79.65-2.66-.98-5.35-3.64-6Z"/>
    <path class="cls-2" d="m262.36,98.88c-3.05-1.44-6.21-2.78-9.39-3.97-2.57-.97-5.43.33-6.39,2.9s.33,5.43,2.9,6.39c2.93,1.1,5.84,2.33,8.65,3.66,2.48,1.11,5.4.06,6.61-2.37,1.17-2.48.11-5.44-2.37-6.61,0,0,0,0,0,0Z"/>
    <path class="cls-1" d="m222.65,329.21c-3.09.38-6.24.63-9.36.76-2.74.11-4.87,2.42-4.76,5.16.15,2.72,2.44,4.83,5.16,4.76,3.39-.14,6.8-.41,10.15-.82,2.72-.31,4.68-2.77,4.37-5.5s-2.77-4.68-5.5-4.37c-.02,0-.05,0-.07,0h0Z"/>
    <path class="cls-1" d="m274.78,309.39c-2.57,1.78-5.24,3.47-7.92,5.03-2.37,1.37-3.18,4.41-1.81,6.78h0c1.4,2.34,4.41,3.14,6.78,1.81,2.92-1.69,5.81-3.53,8.6-5.46,2.26-1.55,2.83-4.64,1.28-6.9-1.55-2.26-4.64-2.83-6.9-1.28-.01,0-.02.01-.03.02h0Z"/>
    <path class="cls-1" d="m179.05,95.3c-.77-2.63-3.52-4.14-6.15-3.37,0,0,0,0-.01,0-3.24.95-6.49,2.04-9.65,3.25-2.56.98-3.84,3.85-2.86,6.41,1.05,2.49,3.85,3.75,6.41,2.86,2.92-1.12,5.91-2.13,8.9-3,2.63-.77,4.14-3.53,3.37-6.16Z"/>
    <path class="cls-2" d="m194.53,329.24c-3.11-.37-6.23-.87-9.27-1.48-2.69-.54-5.3,1.19-5.85,3.88-.54,2.69,1.19,5.3,3.88,5.85h0c3.3.67,6.69,1.21,10.06,1.61,2.71.29,5.16-1.64,5.51-4.34.32-2.72-1.62-5.19-4.34-5.52Z"/>
    <path class="cls-1" d="m167.23,322.57c-2.92-1.1-5.82-2.34-8.64-3.67-2.48-1.18-5.44-.12-6.61,2.36-1.18,2.48-.12,5.44,2.36,6.61,3.06,1.45,6.22,2.8,9.39,3.99,2.56.93,5.4-.35,6.4-2.89.97-2.56-.32-5.43-2.89-6.4Z"/>
    <path class="cls-2" d="m249.92,322.48c-2.91,1.11-5.9,2.11-8.9,2.98-2.63.77-4.15,3.52-3.38,6.15.79,2.61,3.52,4.11,6.15,3.38,3.25-.95,6.5-2.03,9.66-3.24,2.56-.99,3.82-3.87,2.83-6.42-.98-2.53-3.82-3.8-6.36-2.85Z"/>
    <circle class="cls-2" cx="4.96" cy="367.29" r="4.96"/>
    <path class="cls-2" d="m27.3,362.33h-7.45c-2.74,0-4.96,2.22-4.96,4.96s2.22,4.96,4.96,4.96h7.45c2.74,0,4.96-2.22,4.96-4.96s-2.22-4.96-4.96-4.96Z"/>
    <path class="cls-2" d="m397.07,362.33h-7.45c-2.74,0-4.96,2.22-4.96,4.96s2.22,4.96,4.96,4.96h7.45c2.74,0,4.96-2.22,4.96-4.96s-2.22-4.96-4.96-4.96Z"/>
    <circle class="cls-2" cx="411.96" cy="367.29" r="4.96"/>
    <path class="cls-1" d="m293.22,382.18h-20.62c-2.74.22-4.79,2.62-4.57,5.36.2,2.44,2.13,4.37,4.57,4.57h20.62c2.74-.22,4.79-2.62,4.57-5.36-.2-2.44-2.13-4.37-4.57-4.57Z"/>
    <path class="cls-1" d="m144.32,382.18h-20.62c-2.74.22-4.79,2.62-4.57,5.36.2,2.44,2.13,4.37,4.57,4.57h20.62c2.74-.22,4.79-2.62,4.57-5.36-.2-2.44-2.13-4.37-4.57-4.57Z"/>
    <path class="cls-1" d="m258.1,382.18h-99.27c-2.74,0-4.96,2.22-4.96,4.96s2.22,4.96,4.96,4.96h39.56v4.96h-19.7c-2.74,0-4.96,2.22-4.96,4.96s2.22,4.96,4.96,4.96h62.04c2.74,0,4.96-2.22,4.96-4.96s-2.22-4.96-4.96-4.96h-22.19v-4.96h39.56c2.74,0,4.96-2.22,4.96-4.96s-2.22-4.96-4.96-4.96Z"/>
    <path class="cls-2" d="m374.05,362.33h-110.34c82.24-30.51,124.18-121.92,93.66-204.16-30.51-82.24-121.92-124.18-204.16-93.66-82.24,30.51-124.18,121.92-93.66,204.16,16.09,43.37,50.29,77.57,93.66,93.66H42.88c-2.74-.36-5.25,1.57-5.61,4.31-.36,2.74,1.57,5.25,4.31,5.61.43.06.87.06,1.3,0h331.17c2.74.36,5.25-1.57,5.61-4.31s-1.57-5.25-4.31-5.61c-.43-.06-.87-.06-1.3,0ZM59.56,213.43c0-82.24,66.67-148.9,148.9-148.9s148.9,66.67,148.9,148.9-66.67,148.9-148.9,148.9c-82.2-.09-148.81-66.7-148.9-148.9Z"/>
    <path class="cls-2" d="m144.7,14.89c4.11,0,7.45-3.33,7.45-7.45s-3.33-7.45-7.45-7.45-7.45,3.33-7.45,7.45c0,4.11,3.34,7.44,7.45,7.45Zm0-11.17c2.06,0,3.72,1.67,3.72,3.72s-1.67,3.72-3.72,3.72-3.72-1.67-3.72-3.72c0-2.06,1.67-3.72,3.72-3.72Z"/>
    <path class="cls-2" d="m392.87,161.31c-2.74,0-4.96,2.22-4.96,4.96s2.22,4.96,4.96,4.96,4.96-2.22,4.96-4.96c0-2.74-2.22-4.96-4.96-4.96Zm0,7.45c-1.37,0-2.48-1.11-2.48-2.48s1.11-2.48,2.48-2.48,2.48,1.11,2.48,2.48c0,1.37-1.11,2.48-2.48,2.48Z"/>
    <path class="cls-2" d="m239,29.78c-2.74,0-4.96,2.22-4.96,4.96s2.22,4.96,4.96,4.96,4.96-2.22,4.96-4.96c0-2.74-2.22-4.96-4.96-4.96Zm0,7.45c-1.37,0-2.48-1.11-2.48-2.48s1.11-2.48,2.48-2.48,2.48,1.11,2.48,2.48c0,1.37-1.11,2.48-2.48,2.48Z"/>
    <path class="cls-2" d="m345.71,89.34c-2.74,0-4.96,2.22-4.96,4.96s2.22,4.96,4.96,4.96,4.96-2.22,4.96-4.96c0-2.74-2.22-4.96-4.96-4.96Zm0,7.45c-1.37,0-2.48-1.11-2.48-2.48s1.11-2.48,2.48-2.48,2.48,1.11,2.48,2.48c0,1.37-1.11,2.48-2.48,2.48Z"/>
    <path class="cls-2" d="m67.76,81.9c0-2.74-2.22-4.96-4.96-4.96s-4.96,2.22-4.96,4.96,2.22,4.96,4.96,4.96c2.74,0,4.96-2.22,4.96-4.96Zm-7.45,0c0-1.37,1.11-2.48,2.48-2.48s2.48,1.11,2.48,2.48-1.11,2.48-2.48,2.48c-1.37,0-2.48-1.11-2.48-2.48Z"/>
    <polygon class="cls-1" points="27.02 161.34 30.71 156.49 28.38 155.17 26.01 160.6 25.93 160.6 23.53 155.2 21.16 156.56 24.81 161.3 24.81 161.38 19.1 160.64 19.1 163.28 24.84 162.54 24.84 162.62 21.16 167.36 23.37 168.76 25.89 163.28 25.97 163.28 28.3 168.72 30.75 167.32 27.02 162.66 27.02 162.58 32.88 163.28 32.88 160.64 27.02 161.42 27.02 161.34"/>
    <polygon class="cls-1" points="17.57 10.09 15.45 12.82 16.72 13.62 18.18 10.47 18.22 10.47 19.56 13.6 20.97 12.8 18.83 10.11 18.83 10.07 22.2 10.47 22.2 8.95 18.83 9.4 18.83 9.35 20.95 6.56 19.61 5.8 18.25 8.93 18.2 8.93 16.81 5.82 15.45 6.6 17.55 9.33 17.55 9.38 14.26 8.95 14.26 10.47 17.57 10.05 17.57 10.09"/>
    <polygon class="cls-1" points="407.76 43.96 407.76 41.37 402.01 42.13 402.01 42.06 405.63 37.3 403.34 36 401.02 41.33 400.94 41.33 398.58 36.04 396.25 37.37 399.84 42.02 399.84 42.09 394.23 41.37 394.23 43.96 399.87 43.24 399.87 43.31 396.25 47.96 398.43 49.33 400.9 43.96 400.98 43.96 403.26 49.29 405.66 47.92 402.01 43.35 402.01 43.27 407.76 43.96"/>
    <polygon class="cls-1" points="329.44 6.42 332.56 2.31 330.59 1.19 328.59 5.79 328.52 5.79 326.49 1.23 324.48 2.38 327.57 6.39 327.57 6.45 322.74 5.83 322.74 8.06 327.6 7.44 327.6 7.5 324.48 11.51 326.35 12.69 328.49 8.06 328.55 8.06 330.53 12.66 332.6 11.48 329.44 7.53 329.44 7.47 334.4 8.06 334.4 5.83 329.44 6.48 329.44 6.42"/>
  </g>
</svg>