<?xml version="1.0" ?><svg data-name="Layer 1" id="Layer_1" viewBox="0 0 168 168" xmlns="http://www.w3.org/2000/svg"><defs><style>.cls-1{fill:#0bceb2;}.cls-2{fill:#2d4356;}</style></defs><title/><path class="cls-1" d="M62.19971,30.43945a1.92967,1.92967,0,0,0,.7002-.12988,1.99033,1.99033,0,1,0-.7002.12988Z"/><path class="cls-1" d="M43.67969,36.7998a1.99738,1.99738,0,1,0,2.81006.29A1.98935,1.98935,0,0,0,43.67969,36.7998Z"/><path class="cls-2" d="M53.16992,34.7002a2.03614,2.03614,0,0,0,1-.27051,1.98517,1.98517,0,1,0-1,.27051Z"/><path class="cls-2" d="M20.21973,81.2002a2.00268,2.00268,0,0,0,1.83008,2.15918H22.21a1.99366,1.99366,0,0,0,1.98975-1.8291v-.01074a1.99639,1.99639,0,0,0-3.98-.31934Z"/><path class="cls-1" d="M21.87988,71.01953a2.013,2.013,0,0,0,1.46,2.43066,2.113,2.113,0,0,0,.48975.05957,2.00487,2.00487,0,1,0-1.94971-2.49023Z"/><path class="cls-2" d="M27.7998,60.2002a1.99781,1.99781,0,1,0-1.58008,3.66992,2.05675,2.05675,0,0,0,.79.16992,2.01249,2.01249,0,0,0,1.83984-1.21A1.992,1.992,0,0,0,27.7998,60.2002Z"/><path class="cls-2" d="M29.82959,120.59961a2.00525,2.00525,0,0,0,1.7002.93066A1.99665,1.99665,0,0,0,33.21,118.46973V118.46a2.00032,2.00032,0,0,0-3.38037,2.13965Z"/><path class="cls-2" d="M23.27979,99.25977A2.004,2.004,0,0,0,23.75,103.21a1.97426,1.97426,0,0,0,.48-.06055,2.002,2.002,0,0,0-.9502-3.88965Z"/><path class="cls-1" d="M22.17969,93.34961c.06006,0,.11035-.00977.16016-.00977a1.95377,1.95377,0,1,0-.16016.00977Z"/><path class="cls-1" d="M25.0498,111.46973a2.02069,2.02069,0,0,0,1.8501,1.21973,1.99937,1.99937,0,1,0-1.8501-1.21973Z"/><path class="cls-1" d="M30.60986,54.88965a1.98184,1.98184,0,0,0,2.75977-.60937,1.99866,1.99866,0,1,0-2.75977.60938Z"/><path class="cls-1" d="M142.29,65.21973a1.999,1.999,0,0,0,.61963,3.90039A1.9958,1.9958,0,0,0,144.81006,66.5,1.99943,1.99943,0,0,0,142.29,65.21973Z"/><path class="cls-2" d="M138.10986,56.14941a1.99728,1.99728,0,0,0,.93018,3.77051,2.04864,2.04864,0,0,0,.91992-.21973,2.00193,2.00193,0,0,0-1.8501-3.55078Z"/><path class="cls-2" d="M145.56006,78.80957a2.03,2.03,0,1,0-.31006.02051A1.57914,1.57914,0,0,0,145.56006,78.80957Z"/><path class="cls-1" d="M119.42969,37.60938a1.99381,1.99381,0,1,0-1.1499-.35937A1.95572,1.95572,0,0,0,119.42969,37.60938Z"/><path class="cls-2" d="M91.69971,26.96973a1.96118,1.96118,0,1,0-.25-.00977A2.05811,2.05811,0,0,0,91.69971,26.96973Z"/><path class="cls-1" d="M81.79,26.54a2.038,2.038,0,1,0-.07031,0Z"/><path class="cls-2" d="M71.7998,27.7002a1.76461,1.76461,0,0,0,.39014-.04,1.98936,1.98936,0,1,0-.39014.04Z"/><path class="cls-1" d="M101.46973,29a2.03139,2.03139,0,1,0-.56006-.08984A1.8846,1.8846,0,0,0,101.46973,29Z"/><path class="cls-2" d="M110.7998,32.58008a2.00843,2.00843,0,1,0-.85986-.2002A2.04042,2.04042,0,0,0,110.7998,32.58008Z"/><path class="cls-1" d="M132.33984,125.37012a2.02058,2.02058,0,0,0,1.21.39941,1.99739,1.99739,0,1,0-1.6001-3.2002A2.00547,2.00547,0,0,0,132.33984,125.37012Z"/><path class="cls-1" d="M146,84.5a2,2,0,1,0,2,2A2.00544,2.00544,0,0,0,146,84.5Z"/><path class="cls-1" d="M140.91992,105.51953a2.004,2.004,0,0,0,1.27,2.53027,1.9646,1.9646,0,0,0,.62988.09961,2.0007,2.0007,0,1,0-1.8999-2.62988Z"/><path class="cls-2" d="M145.21,98.4502a1.97595,1.97595,0,1,0-.32031-.02051C144.98975,98.43945,145.09961,98.4502,145.21,98.4502Z"/><path class="cls-2" d="M109.67969,140.74023a2.00106,2.00106,0,0,0,.86035,3.80957,1.93955,1.93955,0,0,0,.84961-.19043,2.00138,2.00138,0,0,0-1.71-3.61914Z"/><path class="cls-1" d="M36.00977,128.84961a2.028,2.028,0,0,0,1.5.66992,1.96308,1.96308,0,0,0,1.31982-.5,1.998,1.998,0,1,0-2.81982-.16992Z"/><path class="cls-2" d="M137.96973,117.10938a1.91146,1.91146,0,0,0,.93018.23047,2.00081,2.00081,0,1,0-.93018-.23047Z"/><path class="cls-2" d="M125.46973,132.62988a2.00179,2.00179,0,1,0,.06006-2.83008A2.005,2.005,0,0,0,125.46973,132.62988Z"/><path class="cls-2" d="M127.13965,43.96973a2.01078,2.01078,0,1,0-1.38965-.57031A1.94763,1.94763,0,0,0,127.13965,43.96973Z"/><path class="cls-1" d="M133.73,51.46973a2.00034,2.00034,0,0,0,1.59961-3.2002,2.00119,2.00119,0,1,0-1.59961,3.2002Z"/><path class="cls-1" d="M117.54,138.68945a1.96543,1.96543,0,0,0,1.63965.87012,2.00291,2.00291,0,1,0-1.13965-3.64941h.00977A1.99347,1.99347,0,0,0,117.54,138.68945Z"/><path class="cls-1" d="M54.62988,141.14941a1.994,1.994,0,1,0-2.73.73047,2.03351,2.03351,0,0,0,1,.26953A1.99585,1.99585,0,0,0,54.62988,141.14941Z"/><path class="cls-2" d="M63.79,145.16016a1.9986,1.9986,0,1,0-1.87012,1.29A2.00335,2.00335,0,0,0,63.79,145.16016Z"/><path class="cls-2" d="M43.42969,136a2.013,2.013,0,0,0,2.82031-.28027A2.00081,2.00081,0,1,0,43.42969,136Z"/><path class="cls-2" d="M36.38965,46.74023a1.97163,1.97163,0,0,0,1.33008.5,2.00054,2.00054,0,1,0-1.5-3.33008H36.23A1.99814,1.99814,0,0,0,36.38965,46.74023Z"/><path class="cls-1" d="M71.52,149.24023a1.99845,1.99845,0,1,0-.40039-.04A1.79707,1.79707,0,0,0,71.52,149.24023Z"/><path class="cls-1" d="M100.63965,144.16016a2.00425,2.00425,0,0,0,.56006,3.92969,2.1005,2.1005,0,0,0,.55029-.08008,2.00327,2.00327,0,0,0-1.11035-3.84961Z"/><path class="cls-2" d="M44.54736,95.33008l.77246,2.12109a11.82434,11.82434,0,0,0,13.40411,7.58942L63.708,118.7334a2.00238,2.00238,0,0,0,.97314,1.09961l9.78564,4.97559a6.92944,6.92944,0,0,0,3.14209.76855,6.60316,6.60316,0,0,0,2.30664-.416,6.7475,6.7475,0,0,0,3.90283-3.83887,7.951,7.951,0,0,0-3.584-9.84766l-4.874-2.56152-.40173-1.10382,7.38025-2.68622a4.97429,4.97429,0,0,0,2.7124-2.33594,4.46268,4.46268,0,0,0,.272-3.60742L83.835,95.09076c7.008-1.14319,17.88025-1.71442,32.60352.94891a5.5526,5.5526,0,0,0,2.644.75818,4.21328,4.21328,0,0,0,1.15094-.17578c.04382-.00836.085-.02332.128-.03455.06061-.01923.12274-.0274.183-.04944.017-.00616.03217-.015.049-.02136.02539-.01007.04974-.02142.07465-.03247,2.653-1.05823,3.81085-4.50293,3.43494-10.25378a65.26541,65.26541,0,0,0-3.99414-17.20117,65.28433,65.28433,0,0,0-7.99756-15.74512c-3.46191-4.71973-6.60547-6.60937-9.35205-5.6084-.05878.02136-.11279.05042-.17017.0741a1.98132,1.98132,0,0,0-.77692.41034,4.95851,4.95851,0,0,0-1.61505,1.93744C85.5882,67.90857,73.05176,73.96429,68.47406,75.708a4.01252,4.01252,0,0,0-.496-.293,3.97189,3.97189,0,0,0-3.05859-.13281l-13.27734,4.832A11.88586,11.88586,0,0,0,44.54736,95.33008ZM78.374,115.01563a3.91932,3.91932,0,0,1,1.74023,4.79688,2.69293,2.69293,0,0,1-3.835,1.42969L67.19678,116.625l-4.66095-12.8064,5.92859-2.15759,3.40179,9.3468a2.0017,2.0017,0,0,0,.94922,1.08691Zm3.1416-14.09961a.99985.99985,0,0,1-.54492.44922l-7.37988,2.6861-1.3678-3.75818,1.589-.57831v-.001a3.97288,3.97288,0,0,0,2.25732-2.06836,4.02778,4.02778,0,0,0,.26849-.78522c.88452-.29236,2.0553-.63794,3.52606-.98566l1.70056,4.67322A.46309.46309,0,0,1,81.51563,100.916Zm22.61182-49.48242a.24182.24182,0,0,1,.07959-.01074c.43066,0,2.05469.64941,4.6792,4.22754a61.24714,61.24714,0,0,1,7.46387,14.74609v.001a61.25362,61.25362,0,0,1,3.76172,16.09375c.312,4.77637-.6748,6.19336-.93555,6.28906-.25537.09277-1.92627-.35449-4.75879-4.21582a49.36889,49.36889,0,0,1-4.40143-7.5022,7.681,7.681,0,0,0,3.20758-3.93921,9.84764,9.84764,0,0,0-4.27637-11.749A7.7259,7.7259,0,0,0,104.192,64.379a45.89793,45.89793,0,0,1-1.00006-6.65631C102.87988,52.94629,103.8667,51.5293,104.12744,51.43359Zm5.35205,24.28223A3.8697,3.8697,0,0,1,108.33728,77.34c-.479-1.14563-.9447-2.31726-1.38367-3.52356-.673-1.84869-1.25653-3.67841-1.76318-5.46686a3.90717,3.90717,0,0,1,1.79346.50983,5.85293,5.85293,0,0,1,2.49561,6.85645ZM99.17267,57.41974c.00916.18762.01544.37085.028.56366a65.26541,65.26541,0,0,0,3.99414,17.20117,65.28433,65.28433,0,0,0,7.99756,15.74512c.06805.09277.13446.17047.20227.26111-18.769-2.56775-30.64056.03162-35.81311,1.69055L70.59924,79.1911C75.6452,77.17755,86.39551,71.59979,99.17267,57.41974ZM66.2876,79.04l6.1582,16.915-.002.001v-.001L61.16724,100.059,55.01111,83.14471Zm-14.955,5.69263,5.99664,16.47589A7.87578,7.87578,0,0,1,49.07861,96.083l-.77246-2.12109A7.87947,7.87947,0,0,1,51.33264,84.73267Z"/><path class="cls-2" d="M68.30471,9.5a3,3,0,1,0-3-3A3.00344,3.00344,0,0,0,68.30471,9.5Zm0-4.5a1.5,1.5,0,1,1-1.5,1.5A1.50148,1.50148,0,0,1,68.30471,5Z"/><path class="cls-2" d="M163,55.41974a2,2,0,1,0,2,2A2.00229,2.00229,0,0,0,163,55.41974Zm0,3a1,1,0,1,1,1-1A1.001,1.001,0,0,1,163,58.41974Z"/><path class="cls-2" d="M99.469,14.91342a2,2,0,1,0,2,2A2.00229,2.00229,0,0,0,99.469,14.91342Zm0,3a1,1,0,1,1,1-1A1.001,1.001,0,0,1,99.469,17.91342Z"/><path class="cls-2" d="M164,10.18327a2,2,0,1,0,2,2A2.00229,2.00229,0,0,0,164,10.18327Zm0,3a1,1,0,1,1,1-1A1.001,1.001,0,0,1,164,13.18327Z"/><path class="cls-2" d="M11.5,20.49023a2,2,0,1,0-2,2A2.00229,2.00229,0,0,0,11.5,20.49023Zm-3,0a1,1,0,1,1,1,1A1.001,1.001,0,0,1,8.5,20.49023Z"/><polygon class="cls-1" points="11.915 49.217 13.402 47.261 12.463 46.73 11.509 48.92 11.477 48.92 10.508 46.745 9.552 47.293 11.024 49.202 11.024 49.233 8.723 48.935 8.723 49.999 11.039 49.702 11.039 49.734 9.552 51.642 10.444 52.206 11.462 49.999 11.492 49.999 12.431 52.19 13.417 51.627 11.915 49.749 11.915 49.718 14.277 49.999 14.277 48.935 11.915 49.248 11.915 49.217"/><polygon class="cls-1" points="37.451 27.123 36.594 28.222 37.108 28.547 37.694 27.276 37.712 27.276 38.252 28.537 38.82 28.213 37.955 27.132 37.955 27.114 39.315 27.276 39.315 26.663 37.955 26.843 37.955 26.825 38.811 25.699 38.271 25.393 37.721 26.654 37.703 26.654 37.145 25.402 36.594 25.717 37.442 26.817 37.442 26.835 36.117 26.663 36.117 27.276 37.451 27.105 37.451 27.123"/><polygon class="cls-1" points="147.547 40.486 147.547 39.443 145.23 39.75 145.23 39.719 146.689 37.801 145.768 37.279 144.832 39.427 144.8 39.427 143.849 37.294 142.912 37.831 144.356 39.704 144.356 39.734 142.099 39.443 142.099 40.486 144.371 40.195 144.371 40.226 142.912 42.098 143.787 42.65 144.785 40.486 144.815 40.486 145.736 42.635 146.704 42.083 145.23 40.241 145.23 40.21 147.547 40.486"/><polygon class="cls-1" points="132.081 14.288 133.339 12.633 132.545 12.183 131.737 14.036 131.71 14.036 130.89 12.196 130.082 12.66 131.327 14.275 131.327 14.301 129.38 14.05 129.38 14.95 131.34 14.699 131.34 14.725 130.082 16.34 130.836 16.817 131.697 14.95 131.723 14.95 132.518 16.803 133.352 16.327 132.081 14.738 132.081 14.712 134.08 14.95 134.08 14.05 132.081 14.314 132.081 14.288"/><circle class="cls-2" cx="2" cy="148.5" r="2"/><path class="cls-2" d="M11,146.5H8a2,2,0,0,0,0,4h3a2,2,0,0,0,0-4Z"/><path class="cls-2" d="M160,146.5h-3a2,2,0,0,0,0,4h3a2,2,0,0,0,0-4Z"/><circle class="cls-2" cx="166" cy="148.5" r="2"/><path class="cls-1" d="M118.15387,154.5h-8.30774a2.00641,2.00641,0,0,0,0,4h8.30774a2.00641,2.00641,0,0,0,0-4Z"/><path class="cls-1" d="M58.15387,154.5H49.84613a2.00641,2.00641,0,0,0,0,4h8.30774a2.00641,2.00641,0,0,0,0-4Z"/><path class="cls-1" d="M104,154.5H64a2,2,0,0,0,0,4H79.94v2H72a2,2,0,0,0,0,4H97a2,2,0,0,0,0-4H88.06v-2H104a2,2,0,0,0,0-4Z"/><path class="cls-2" d="M150.72131,146.5H92.66113a1.99941,1.99941,0,0,0-1.49121-.43066,1.97739,1.97739,0,0,0-1.00708.43066H17.27869a2.017,2.017,0,1,0,0,4H150.72131a2.017,2.017,0,1,0,0-4Z"/></svg>