<?xml version="1.0" encoding="UTF-8"?>
<svg id="Layer_2" data-name="Layer 2" xmlns="http://www.w3.org/2000/svg" viewBox="0 0 667.83 640">
  <defs>
    <style>
      .cls-1 {
        fill: #193755;
      }

      .cls-2 {
        fill: #1abc9c;
      }
    </style>
  </defs>
  <g id="Layer_1-2" data-name="Layer 1">
    <g>
      <path class="cls-1" d="m222.61,218.63c0,4.39,3.56,7.95,7.95,7.95h206.71c4.39,0,7.95-3.56,7.95-7.95s-3.56-7.95-7.95-7.95h-206.71c-4.39,0-7.95,3.56-7.95,7.95Z"/>
      <path class="cls-1" d="m230.56,306.09h206.71c4.39,0,7.95-3.56,7.95-7.95s-3.56-7.95-7.95-7.95h-206.71c-4.39,0-7.95,3.56-7.95,7.95s3.56,7.95,7.95,7.95Z"/>
      <path class="cls-1" d="m437.27,528.7h-206.71c-4.39,0-7.95,3.56-7.95,7.95s3.56,7.95,7.95,7.95h206.71c4.39,0,7.95-3.56,7.95-7.95s-3.56-7.95-7.95-7.95Z"/>
      <path class="cls-1" d="m230.56,385.59h106.64c.48-5.46,1.75-10.81,3.77-15.9h-110.41c-4.39,0-7.95,3.56-7.95,7.95s3.56,7.95,7.95,7.95Z"/>
      <path class="cls-1" d="m230.56,465.09h110.95c-2.81-4.96-4.84-10.33-6.04-15.9h-104.91c-4.39,0-7.95,3.56-7.95,7.95s3.56,7.95,7.95,7.95Z"/>
      <path class="cls-1" d="m450.99,399.64l.14-.33c.77-1.88,1.16-3.89,1.17-5.93.36-11.54-3.91-22.75-11.87-31.12-4.5-4.6-9.94-8.16-15.96-10.43l-.03-2.22c-.12-8.7-7.2-15.68-15.9-15.69-.09,0-.17,0-.26,0l-11.38.18c-8.76.14-15.76,7.34-15.64,16.11l.02,1.56c-5.93,2.13-11.35,5.46-15.95,9.77-15.39,15.35-16.76,39.83-3.18,56.8-4.46,1.09-8.24,4.05-10.35,8.12l-.21.4c-1.16,2.23-1.77,4.71-1.79,7.22-.74,13.03,4.73,25.64,14.74,34,5.03,4.05,10.79,7.1,16.97,9v.16c.12,8.7,7.2,15.68,15.9,15.69.09,0,.17,0,.26,0l11.38-.18c8.76-.14,15.76-7.35,15.64-16.11v-.37c5.86-2.06,11.25-5.29,15.83-9.49,8.45-7.88,13.06-19.05,12.62-30.6.14-10.32-3.65-20.3-10.6-27.93,3.83-1.65,6.86-4.74,8.43-8.61Zm-21.25,55.46c-5.92,5.07-13.33,8.09-21.11,8.59l.17,13.15-11.38.18-.18-13.15c-8.23-.27-16.17-3.12-22.69-8.15-6.2-5.37-9.48-13.36-8.84-21.53l.21-.4,20.33-.32c-.4,4.54,1.31,9,4.64,12.11,3.24,2.41,7.21,3.63,11.24,3.45.14,0,.29,0,.44,0,3.79.23,7.53-.98,10.48-3.37,2.36-2.3,3.6-5.52,3.39-8.8.11-3.27-1.15-6.43-3.47-8.72-3.56-2.85-7.65-4.95-12.04-6.18-8.72-2.18-16.92-6.07-24.13-11.43-5.41-4.73-8.37-11.66-8.06-18.84-.31-7,2.45-13.79,7.55-18.59,5.86-5.18,13.27-8.27,21.08-8.79l-.19-14.29,11.38-.18.19,14.49c7.62.53,14.82,3.74,20.31,9.05,5.06,5.38,7.71,12.58,7.35,19.96l-.14.33-20.4.33c.22-4.04-1.1-8.02-3.69-11.13-2.53-2.58-6.04-3.95-9.65-3.75-.1,0-.21,0-.32,0-3.57-.27-7.09.97-9.69,3.43-2.07,2.47-3.1,5.65-2.89,8.86-.11,3.06,1.09,6.03,3.3,8.16,3.68,2.85,7.84,5.02,12.29,6.41,8.69,2.08,16.84,5.96,23.92,11.41,5.41,4.8,8.4,11.77,8.13,19,.38,7.04-2.37,13.9-7.52,18.72Z"/>
      <path class="cls-1" d="m274.29,23.85c6.59,0,11.93-5.34,11.93-11.93s-5.34-11.93-11.93-11.93-11.93,5.34-11.93,11.93c0,6.58,5.34,11.92,11.93,11.93Zm0-17.89c3.29,0,5.96,2.67,5.96,5.96s-2.67,5.96-5.96,5.96-5.96-2.67-5.96-5.96c0-3.29,2.67-5.96,5.96-5.96Z"/>
      <path class="cls-1" d="m596.27,151.06c4.39,0,7.95-3.56,7.95-7.95s-3.56-7.95-7.95-7.95-7.95,3.56-7.95,7.95c0,4.39,3.56,7.95,7.95,7.95Zm0-11.93c2.2,0,3.98,1.78,3.98,3.98s-1.78,3.98-3.98,3.98-3.98-1.78-3.98-3.98c0-2.19,1.78-3.97,3.98-3.98Z"/>
      <path class="cls-1" d="m111.3,258.39c4.39,0,7.95-3.56,7.95-7.95s-3.56-7.95-7.95-7.95-7.95,3.56-7.95,7.95c0,4.39,3.56,7.95,7.95,7.95Zm0-11.93c2.2,0,3.98,1.78,3.98,3.98s-1.78,3.98-3.98,3.98-3.98-1.78-3.98-3.98c0-2.19,1.78-3.97,3.98-3.98Z"/>
      <path class="cls-1" d="m147.08,67.58c4.39,0,7.95-3.56,7.95-7.95s-3.56-7.95-7.95-7.95-7.95,3.56-7.95,7.95c0,4.39,3.56,7.95,7.95,7.95Zm0-11.93c2.2,0,3.98,1.78,3.98,3.98s-1.78,3.98-3.98,3.98-3.98-1.78-3.98-3.98c0-2.19,1.78-3.97,3.98-3.98Z"/>
      <circle class="cls-1" cx="7.95" cy="572.42" r="7.95"/>
      <path class="cls-1" d="m43.73,564.47h-11.93c-4.39,0-7.95,3.56-7.95,7.95s3.56,7.95,7.95,7.95h11.93c4.39,0,7.95-3.56,7.95-7.95s-3.56-7.95-7.95-7.95Z"/>
      <path class="cls-1" d="m636.02,564.47h-11.93c-4.39,0-7.95,3.56-7.95,7.95s3.56,7.95,7.95,7.95h11.93c4.39,0,7.95-3.56,7.95-7.95s-3.56-7.95-7.95-7.95Z"/>
      <circle class="cls-1" cx="659.88" cy="572.42" r="7.95"/>
      <path class="cls-1" d="m599.14,564.47h-94.61c2.81-4.83,4.29-10.31,4.29-15.9V178.88l-131.18-107.33h-186.83c-17.56,0-31.8,14.24-31.8,31.8v445.22c0,5.59,1.48,11.07,4.29,15.9h-94.61c-4.39-.57-8.42,2.52-8.99,6.91-.57,4.39,2.52,8.42,6.91,8.99.69.09,1.39.09,2.08,0h530.46c4.39.57,8.42-2.52,8.99-6.91s-2.52-8.42-6.91-8.99c-.69-.09-1.39-.09-2.08,0ZM385.59,100.03l87.65,70.9h-71.83c-8.53.19-15.6-6.55-15.82-15.07v-55.83Zm107.33,448.54c0,8.78-7.12,15.89-15.9,15.9H190.81c-8.78,0-15.89-7.12-15.9-15.9V103.35c0-8.78,7.12-15.89,15.9-15.9h178.88v68.41c.21,17.31,14.41,31.18,31.72,30.97h91.51v361.74Z"/>
      <path class="cls-2" d="m230.56,266.34h206.71c4.39,0,7.95-3.56,7.95-7.95s-3.56-7.95-7.95-7.95h-206.71c-4.39,0-7.95,3.56-7.95,7.95s3.56,7.95,7.95,7.95Z"/>
      <path class="cls-2" d="m437.27,329.94h-3.92c2.7,3.36,4.7,7.24,5.85,11.4,1.22.71,2.32,1.56,3.48,2.35,3.21-2.98,3.4-7.99.43-11.2-1.51-1.62-3.62-2.55-5.84-2.54Z"/>
      <path class="cls-2" d="m230.56,345.84h128.82c2.31-1.78,4.74-3.4,7.28-4.83,1.23-4.05,3.25-7.82,5.96-11.07h-142.06c-4.39,0-7.95,3.56-7.95,7.95s3.56,7.95,7.95,7.95Z"/>
      <path class="cls-2" d="m230.56,425.34h104.66c.56-2.01,1.33-3.95,2.27-5.81l.21-.4c.96-1.85,2.1-3.6,3.4-5.22-.57-1.42-1.08-2.91-1.56-4.46h-108.98c-4.39,0-7.95,3.56-7.95,7.95s3.56,7.95,7.95,7.95Z"/>
      <path class="cls-2" d="m445.22,496.89c0-4.06-3.09-7.46-7.13-7.87-2.8,6.75-7.83,12.34-14.26,15.82h13.44c4.39,0,7.95-3.56,7.95-7.95Z"/>
      <path class="cls-2" d="m230.56,504.84h151.53c-6.41-3.5-11.41-9.12-14.13-15.9h-137.4c-4.39,0-7.95,3.56-7.95,7.95s3.56,7.95,7.95,7.95Z"/>
      <polygon class="cls-2" points="46.04 99.42 51.96 91.65 48.22 89.54 44.43 98.24 44.3 98.24 40.45 89.6 36.65 91.77 42.5 99.36 42.5 99.49 33.36 98.31 33.36 102.54 42.56 101.35 42.56 101.48 36.65 109.06 40.2 111.3 44.24 102.54 44.36 102.54 48.1 111.24 52.01 109 46.04 101.54 46.04 101.41 55.43 102.54 55.43 98.31 46.04 99.55 46.04 99.42"/>
      <polygon class="cls-2" points="40.87 289.27 44.27 284.79 42.12 283.58 39.94 288.59 39.87 288.59 37.65 283.61 35.46 284.86 38.83 289.23 38.83 289.3 33.56 288.62 33.56 291.06 38.87 290.38 38.87 290.45 35.46 294.82 37.5 296.11 39.83 291.06 39.9 291.06 42.05 296.07 44.31 294.79 40.87 290.48 40.87 290.41 46.27 291.06 46.27 288.62 40.87 289.34 40.87 289.27"/>
      <polygon class="cls-2" points="560.5 297 560.5 292.85 551.29 294.07 551.29 293.95 557.09 286.32 553.43 284.25 549.7 292.79 549.58 292.79 545.8 284.31 542.07 286.45 547.81 293.89 547.81 294.01 538.84 292.85 538.84 297 547.87 295.84 547.87 295.96 542.07 303.4 545.55 305.6 549.52 297 549.64 297 553.3 305.54 557.14 303.34 551.29 296.02 551.29 295.9 560.5 297"/>
      <polygon class="cls-2" points="540.96 24.84 544.12 32.2 547.43 30.31 542.38 23.99 542.38 23.89 550.33 24.84 550.33 21.26 542.38 22.31 542.38 22.21 547.38 15.63 544.23 13.84 541.01 21.2 540.91 21.2 537.65 13.89 534.44 15.73 539.38 22.15 539.38 22.26 531.65 21.26 531.65 24.84 539.44 23.84 539.44 23.94 534.44 30.36 537.43 32.26 540.86 24.84 540.96 24.84"/>
      <polygon class="cls-2" points="459.93 103.45 454.93 109.87 457.93 111.76 461.36 104.34 461.46 104.34 464.62 111.71 467.93 109.81 462.88 103.5 462.88 103.39 470.83 104.34 470.83 100.76 462.88 101.81 462.88 101.71 467.88 95.13 464.72 93.34 461.51 100.71 461.41 100.71 458.14 93.39 454.93 95.24 459.88 101.66 459.88 101.76 452.14 100.76 452.14 104.34 459.93 103.34 459.93 103.45"/>
      <path class="cls-2" d="m469.68,600.25h-33.02c-4.39.35-7.67,4.2-7.31,8.59.31,3.9,3.41,7,7.31,7.31h33.02c4.39-.35,7.67-4.2,7.31-8.59-.31-3.9-3.41-7-7.31-7.31Z"/>
      <path class="cls-2" d="m231.17,600.25h-33.02c-4.39.35-7.67,4.2-7.31,8.59.31,3.9,3.41,7,7.31,7.31h33.02c4.39-.35,7.67-4.2,7.31-8.59-.31-3.9-3.41-7-7.31-7.31Z"/>
      <path class="cls-2" d="m413.42,600.25h-159.01c-4.39,0-7.95,3.56-7.95,7.95s3.56,7.95,7.95,7.95h63.36v7.95h-31.56c-4.39,0-7.95,3.56-7.95,7.95s3.56,7.95,7.95,7.95h99.38c4.39,0,7.95-3.56,7.95-7.95s-3.56-7.95-7.95-7.95h-35.54v-7.95h63.36c4.39,0,7.95-3.56,7.95-7.95s-3.56-7.95-7.95-7.95Z"/>
    </g>
  </g>
</svg>