<?xml version="1.0" encoding="utf-8"?>
<!-- Generator: Adobe Illustrator 26.5.0, SVG Export Plug-In . SVG Version: 6.00 Build 0)  -->
<svg version="1.1" id="Layer_2_00000151519439014310726400000009347319956051324835_"
	 xmlns="http://www.w3.org/2000/svg" xmlns:xlink="http://www.w3.org/1999/xlink" x="0px" y="0px" viewBox="0 0 1553.9 387.3"
	 style="enable-background:new 0 0 1553.9 387.3;" xml:space="preserve">
<style type="text/css">
	.st0{enable-background:new    ;}
	.st1{fill:#E41767;}
</style>
<g id="Layer_1-2">
	<g class="st0">
		<path class="st1" d="M25.3,292.8V99.6h79.4c8.2,0,15.7,1.7,22.6,5.2c6.9,3.4,12.8,8,17.8,13.7c5,5.7,8.9,12.2,11.7,19.3
			c2.8,7.2,4.2,14.4,4.2,21.6c0,7.8-1.3,15.3-3.9,22.6c-2.6,7.3-6.4,13.7-11.2,19.3c-4.8,5.6-10.6,10.1-17.3,13.5
			c-6.7,3.4-14.1,5-22.3,5H39.2v72.9H25.3z M39.2,207.1h66.7c6.3,0,12.1-1.3,17.1-3.9c5.1-2.6,9.4-6.2,12.9-10.6
			c3.5-4.4,6.3-9.5,8.2-15.2s2.9-11.7,2.9-17.8c0-6.3-1.1-12.4-3.4-18.1c-2.3-5.7-5.4-10.7-9.2-15.1c-3.9-4.4-8.4-7.8-13.6-10.3
			c-5.2-2.5-10.7-3.8-16.5-3.8h-65V207.1z"/>
		<path class="st1" d="M194.2,292.8V99.6h80.3c8.2,0,15.7,1.7,22.6,5.2c6.9,3.4,12.8,8,17.8,13.7c5,5.7,8.9,12.2,11.7,19.3
			c2.8,7.2,4.2,14.4,4.2,21.6c0,7.1-1.1,13.9-3.3,20.5c-2.2,6.6-5.3,12.6-9.2,17.8c-4,5.3-8.8,9.6-14.4,13.1
			c-5.6,3.4-11.8,5.7-18.5,6.8l48.2,75.1h-16.1l-46.8-72.9h-62.6v72.9H194.2z M208.1,207.1h67.7c6.2,0,11.8-1.4,16.9-4.1
			c5.1-2.7,9.4-6.3,13.1-10.7c3.6-4.4,6.4-9.5,8.3-15.2c1.9-5.7,2.9-11.6,2.9-17.5c0-6.2-1.1-12.1-3.4-17.8
			c-2.3-5.7-5.4-10.7-9.2-15.1c-3.9-4.4-8.4-7.8-13.6-10.5c-5.2-2.6-10.7-3.9-16.7-3.9h-65.8V207.1z"/>
	</g>
	<g class="st0">
		<path class="st1" d="M447.8,294.2c-13.4,0-25.7-2.8-36.7-8.4c-11.1-5.6-20.6-13-28.6-22c-8-9.1-14.1-19.5-18.5-31.3
			c-4.4-11.8-6.5-23.8-6.5-36.2c0-12.9,2.3-25.2,6.9-37c4.6-11.8,11-22.2,19-31.3c8.1-9.1,17.6-16.3,28.7-21.6c11.1-5.3,23-8,35.9-8
			c13.4,0,25.7,2.9,36.9,8.6c11.2,5.7,20.7,13.2,28.6,22.4c7.9,9.2,14,19.7,18.4,31.4c4.4,11.7,6.5,23.5,6.5,35.5
			c0,13.1-2.3,25.5-6.9,37.3c-4.6,11.8-11,22.2-19,31.1c-8.1,9-17.6,16.1-28.7,21.5C472.6,291.5,460.7,294.2,447.8,294.2z
			 M371.3,196.2c0,11.1,1.9,21.7,5.6,32c3.7,10.2,9,19.3,15.8,27.2c6.8,7.9,14.9,14.2,24.3,18.9c9.4,4.7,19.8,7.1,31,7.1
			c11.6,0,22.1-2.4,31.4-7.3c9.3-4.9,17.3-11.4,23.9-19.5c6.6-8.1,11.7-17.2,15.4-27.3c3.6-10.2,5.4-20.5,5.4-31
			c0-11.1-1.9-21.7-5.7-32c-3.8-10.2-9.1-19.3-15.9-27.2c-6.8-7.9-14.8-14.2-24.1-18.9c-9.2-4.7-19.4-7.1-30.5-7.1
			c-11.6,0-22.1,2.4-31.6,7.3c-9.4,4.9-17.5,11.4-24.2,19.5c-6.7,8.1-11.9,17.2-15.5,27.3C373.2,175.4,371.3,185.7,371.3,196.2z"/>
	</g>
	<g class="st0">
		<path class="st1" d="M549.5,272.7c4.5,3.1,10,5.6,16.3,7.5c6.3,1.9,13.4,2.9,21.2,2.9c10.5,0,18.9-1.9,25-5.7
			c6.2-3.8,10.9-9.3,14.1-16.6c3.3-7.3,5.4-16.2,6.4-26.8c1-10.6,1.5-22.6,1.5-36V99.6H648v98.2c0,14.7-0.6,28.1-1.9,40.1
			c-1.3,12.1-4,22.4-8.3,30.9c-4.3,8.5-10.4,15.1-18.4,19.9c-8,4.7-18.8,7.1-32.4,7.1c-16.3,0-30.3-4-41.9-12L549.5,272.7z"/>
	</g>
	<g class="st0">
		<path class="st1" d="M824.9,280.3v12.5H696.2V99.6h126.2v12.5H710.1v75.9h98.2v12h-98.2v80.3H824.9z"/>
	</g>
	<g class="st0">
		<path class="st1" d="M845.3,194.9c0-11.6,2-23.2,6.1-34.7c4.1-11.5,10-21.8,17.8-30.9c7.8-9.1,17.4-16.5,28.7-22.2
			c11.3-5.7,24.3-8.6,38.8-8.6c17.2,0,31.9,3.9,44.1,11.8c12.1,7.9,21.2,18,27.2,30.3l-11.4,6.5c-3.4-6.7-7.5-12.3-12.1-16.9
			c-4.6-4.5-9.6-8.2-15-11c-5.4-2.8-10.9-4.9-16.7-6.1c-5.8-1.3-11.5-1.9-17.1-1.9c-12.3,0-23.2,2.5-32.6,7.5
			c-9.4,5-17.4,11.5-23.9,19.5c-6.5,8-11.5,17-14.8,27.1c-3.4,10.1-5,20.2-5,30.3c0,11.4,2,22.3,6,32.6c4,10.3,9.4,19.5,16.3,27.3
			c6.9,7.9,15.1,14.2,24.5,18.9c9.4,4.7,19.6,7.1,30.5,7.1c5.8,0,11.8-0.7,18-2.2c6.2-1.5,12.1-3.7,17.7-6.8
			c5.6-3.1,10.9-7,15.8-11.8c4.9-4.8,9-10.5,12.2-17l12,5.7c-3.3,7.3-7.7,13.7-13.3,19.3c-5.6,5.6-11.9,10.3-18.8,14.1
			c-6.9,3.8-14.2,6.7-21.9,8.6c-7.7,1.9-15.3,2.9-22.7,2.9c-13.2,0-25.3-2.9-36.3-8.7c-11-5.8-20.5-13.4-28.4-22.7
			c-8-9.3-14.2-19.9-18.6-31.8C847.5,219.3,845.3,207.2,845.3,194.9z"/>
	</g>
	<g class="st0">
		<path class="st1" d="M1179.3,112.2h-70.7v180.6h-13.9V112.2H1024V99.6h155.3V112.2z"/>
	</g>
	<g>
		<path class="st1" d="M1481.6,240.9c1.8-4.7,2.5-10,2.5-15.2c0-23.2-15.7-41.7-39.9-41.7s-39.9,18.5-39.9,41.7s15.7,41.7,39.9,41.7
			h1.5l-13.7-17.2l35-28L1481.6,240.9L1481.6,240.9z"/>
		<path class="st1" d="M1476.9,306.5c-10,3.5-21,5.2-32.7,5.2c-51.4,0-91.1-35-91.1-86.1c0-3.9,0.2-7.6,0.7-11.3v-50.2h-59.7v63.7
			h-50.4V82.3l-25.1,14.5v193.6l167.7,96.8l106.4-61.4L1476.9,306.5L1476.9,306.5z"/>
		<path class="st1" d="M1386.2,0l-92.2,53.2v67h59.7V61.3h50.4v86.1c12-5.1,25.5-7.9,40-7.9c51.4,0,91.1,34.9,91.1,86.1
			c0,22.5-7.7,41.9-20.7,56.4l17.3,21.2l22.1-12.8V96.8L1386.2,0z"/>
	</g>
</g>
</svg>
