<?xml version="1.0" encoding="UTF-8"?><svg id="Layer_2" xmlns="http://www.w3.org/2000/svg" viewBox="0 0 1169.87 385.77"><defs><style>.cls-1{fill:#592d80;}</style></defs><g id="Layer_1-2"><g><g><path class="cls-1" d="M1097.81,239.93c1.74-4.73,2.49-9.95,2.49-15.17,0-23.13-15.67-41.53-39.79-41.53s-39.79,18.41-39.79,41.53,15.67,41.53,39.79,41.53h1.49l-13.68-17.16,34.82-27.86,14.67,18.65Z"/><path class="cls-1" d="M1093.09,305.34c-9.95,3.48-20.89,5.22-32.58,5.22-51.23,0-90.77-34.82-90.77-85.8,0-3.86,.25-7.61,.69-11.28v-49.98h-59.44v63.42h-50.24V82.03l-24.97,14.42v192.88l167.04,96.44,105.95-61.17-15.68-19.26Z"/><path class="cls-1" d="M1002.82,0l-91.84,53.02V119.73h59.44V61.03h50.24v85.78c11.94-5.1,25.43-7.85,39.84-7.85,51.23,0,90.77,34.82,90.77,85.8,0,22.38-7.71,41.78-20.64,56.21l17.2,21.08,22.02-12.71V96.44L1002.82,0Z"/></g><g><path class="cls-1" d="M0,195.73c0-11.56,2.03-23.08,6.1-34.55,4.06-11.47,9.98-21.72,17.74-30.76,7.77-9.03,17.3-16.39,28.59-22.09,11.29-5.69,24.16-8.53,38.62-8.53,17.16,0,31.79,3.93,43.9,11.79,12.09,7.86,21.13,17.93,27.1,30.22l-11.38,6.5c-3.43-6.68-7.45-12.28-12.05-16.8-4.61-4.52-9.58-8.17-14.91-10.98-5.33-2.8-10.88-4.83-16.66-6.1-5.79-1.26-11.48-1.9-17.07-1.9-12.29,0-23.14,2.49-32.52,7.45-9.4,4.97-17.34,11.43-23.84,19.37-6.5,7.95-11.43,16.94-14.77,26.97-3.34,10.02-5.01,20.1-5.01,30.21,0,11.38,1.99,22.22,5.97,32.52,3.97,10.3,9.39,19.38,16.26,27.23,6.86,7.86,14.99,14.14,24.39,18.84,9.4,4.7,19.51,7.05,30.35,7.05,5.78,0,11.74-.72,17.89-2.17,6.14-1.44,12.01-3.7,17.61-6.77,5.6-3.07,10.84-7,15.72-11.79,4.87-4.79,8.94-10.43,12.19-16.94l11.92,5.69c-3.25,7.22-7.67,13.64-13.27,19.24-5.6,5.6-11.84,10.3-18.7,14.09-6.87,3.79-14.15,6.64-21.82,8.53-7.69,1.9-15.23,2.85-22.63,2.85-13.19,0-25.25-2.89-36.18-8.67-10.93-5.78-20.37-13.32-28.32-22.63-7.95-9.3-14.14-19.87-18.56-31.71-4.43-11.83-6.64-23.89-6.64-36.18Z"/><path class="cls-1" d="M200.26,293.29V100.89h79.94c8.13,0,15.63,1.72,22.5,5.15,6.86,3.44,12.78,8,17.74,13.69,4.96,5.69,8.85,12.11,11.66,19.24,2.8,7.14,4.2,14.32,4.2,21.54s-1.09,13.87-3.25,20.46c-2.16,6.6-5.24,12.51-9.21,17.75-3.98,5.24-8.77,9.58-14.36,13.01-5.61,3.43-11.75,5.69-18.43,6.77l47.97,74.79h-15.99l-46.61-72.63h-62.33v72.63h-13.83Zm13.83-85.36h67.47c6.14,0,11.74-1.35,16.8-4.06,5.06-2.71,9.4-6.28,13.02-10.7,3.61-4.43,6.36-9.49,8.26-15.18,1.89-5.69,2.85-11.52,2.85-17.48s-1.13-12.06-3.39-17.75c-2.26-5.69-5.33-10.7-9.21-15.04-3.88-4.34-8.4-7.81-13.55-10.43s-10.7-3.93-16.67-3.93h-65.57v94.57Z"/><path class="cls-1" d="M504.3,280.82v12.47h-128.18V100.89h125.74v12.47h-111.92v75.61h97.83v11.92h-97.83v79.94h114.36Z"/><path class="cls-1" d="M615.69,102.24h13.54l28.73,69.91,28.73-69.91h13.54l-33.87,81.02,40.38,93.77,73.7-176.15h15.18l-82.38,192.4h-12.75l-42.27-98.91-42.54,98.91h-12.75l-82.11-192.4h14.91l73.97,176.15,39.84-93.77-33.87-81.02Z"/></g></g></g></svg>