<?xml version="1.0" encoding="UTF-8"?>
<svg id="Layer_2" data-name="Layer 2" xmlns="http://www.w3.org/2000/svg" viewBox="0 0 516.48 505.16">
  <defs>
    <style>
      .cls-1 {
        fill: #193755;
      }

      .cls-2 {
        fill: #1abc9c;
      }
    </style>
  </defs>
  <g id="Layer_1-2" data-name="Layer 1">
    <path class="cls-1" d="m218.59,240.64c40.72-.11,73.64-33.22,73.52-73.94-.11-40.72-33.22-73.64-73.94-73.52-40.64.11-73.52,33.09-73.52,73.73.06,40.78,33.16,73.79,73.94,73.73Zm0-135.17c33.93.1,61.36,27.68,61.27,61.61-.1,33.93-27.68,61.36-61.61,61.27-33.87-.1-61.27-27.58-61.27-61.44.09-33.96,27.65-61.45,61.61-61.44Z"/>
    <path class="cls-2" d="m214.39,202.47v5.72c-.02,2.63,2.1,4.78,4.73,4.8s4.78-2.1,4.8-4.73c0-.02,0-.05,0-.07v-5.72c13.73-1.33,20.9-8.68,20.9-19.92,0-25.54-37.4-19.31-37.4-32.7,0-4.09,3.18-8.07,11.68-8.07,5.29-.05,10.41,1.88,14.34,5.41,1.13,1.28,2.71,2.08,4.4,2.25,3.02.03,5.5-2.39,5.54-5.41-.01-1.17-.37-2.31-1.03-3.27-3.48-4.9-10.25-8.17-18.44-9.2v-5.93c.02-2.63-2.1-4.78-4.73-4.8s-4.78,2.1-4.8,4.73c0,.02,0,.05,0,.07v5.82c-13.12,1.43-18.85,9.3-18.85,18.39,0,24.62,37.4,17.78,37.4,32.7,0,6.33-4.51,9.4-13.83,9.4-6.43-.18-12.5-2.99-16.8-7.76-1.1-1.37-2.75-2.19-4.51-2.25-3.03.04-5.47,2.52-5.43,5.56.01,1,.29,1.97.82,2.82,4.97,6.94,12.71,11.38,21.21,12.16Z"/>
    <path class="cls-2" d="m147.73,252.93c0-3.4-2.76-6.15-6.16-6.14h-43.13c-3.4,0-6.16,2.75-6.16,6.14v43.01c0,3.4,2.76,6.15,6.16,6.14h43.13c3.4,0,6.16-2.75,6.16-6.14v-43.01Zm-12.32,36.86h-30.81v-30.72h30.81v30.72Z"/>
    <path class="cls-1" d="m147.73,320.51c0-3.4-2.76-6.15-6.16-6.14h-43.13c-3.4,0-6.16,2.75-6.16,6.14v43.01c0,3.4,2.76,6.15,6.16,6.14h43.13c3.4,0,6.16-2.75,6.16-6.14v-43.01Zm-12.32,36.86h-30.81v-30.72h30.81v30.72Z"/>
    <path class="cls-2" d="m141.57,381.95h-43.13c-3.4,0-6.16,2.75-6.16,6.14v43.01c0,3.4,2.76,6.15,6.16,6.14h43.13c3.4,0,6.16-2.75,6.16-6.14v-43.01c0-3.4-2.76-6.15-6.16-6.14Zm-6.16,43.01h-30.81v-30.72h30.81v30.72Z"/>
    <path class="cls-1" d="m252.48,256h-86.26c-3.39-.01-6.15,2.73-6.16,6.13-.01,3.39,2.73,6.15,6.13,6.16.01,0,.02,0,.04,0h86.26c3.39.01,6.15-2.73,6.16-6.13.01-3.39-2.73-6.15-6.13-6.16-.01,0-.02,0-.04,0Z"/>
    <path class="cls-2" d="m166.22,292.87h55.45c3.39.01,6.15-2.73,6.16-6.13.01-3.39-2.73-6.15-6.13-6.16-.01,0-.02,0-.04,0h-55.45c-3.39-.01-6.15,2.73-6.16,6.13-.01,3.39,2.73,6.15,6.13,6.16.01,0,.02,0,.04,0Z"/>
    <path class="cls-1" d="m258.64,326.66c0-3.4-2.76-6.15-6.16-6.14h-86.26c-3.39,0-6.15,2.74-6.16,6.13,0,3.39,2.74,6.15,6.13,6.16,0,0,.02,0,.03,0h86.26c3.4,0,6.16-2.75,6.16-6.14Z"/>
    <path class="cls-2" d="m166.22,345.09c-3.39,0-6.15,2.74-6.16,6.13,0,3.39,2.74,6.15,6.13,6.16,0,0,.02,0,.03,0h55.45c3.39,0,6.15-2.74,6.16-6.13,0-3.39-2.74-6.15-6.13-6.16,0,0-.02,0-.03,0h-55.45Z"/>
    <path class="cls-2" d="m166.22,415.75c-3.39-.01-6.15,2.73-6.17,6.12-.01,3.39,2.73,6.15,6.12,6.17.01,0,.03,0,.04,0h55.45c3.39.01,6.15-2.73,6.17-6.12.01-3.39-2.73-6.15-6.12-6.17-.01,0-.03,0-.04,0h-55.45Z"/>
    <path class="cls-1" d="m254.58,403.07l2.81-9.42c-1.16-1.55-2.98-2.47-4.92-2.48h-86.26c-3.39-.01-6.15,2.73-6.17,6.12-.01,3.39,2.73,6.15,6.12,6.17.01,0,.03,0,.04,0h86.26c.72,0,1.43-.14,2.11-.39Z"/>
    <circle class="cls-1" cx="6.15" cy="455.97" r="6.15"/>
    <path class="cls-1" d="m33.82,449.82h-9.22c-3.4,0-6.15,2.75-6.15,6.15s2.75,6.15,6.15,6.15h9.22c3.4,0,6.15-2.75,6.15-6.15s-2.75-6.15-6.15-6.15Z"/>
    <path class="cls-1" d="m491.89,449.82h-9.22c-3.4,0-6.15,2.75-6.15,6.15s2.75,6.15,6.15,6.15h9.22c3.4,0,6.15-2.75,6.15-6.15s-2.75-6.15-6.15-6.15Z"/>
    <circle class="cls-1" cx="510.33" cy="455.97" r="6.15"/>
    <path class="cls-2" d="m363.24,474.41h-25.54c-3.4.27-5.93,3.25-5.66,6.64.24,3.02,2.64,5.41,5.66,5.66h25.54c3.4-.27,5.93-3.25,5.66-6.64-.24-3.02-2.64-5.41-5.66-5.66Z"/>
    <path class="cls-2" d="m178.78,474.41h-25.54c-3.4.27-5.93,3.25-5.66,6.64.24,3.02,2.64,5.41,5.66,5.66h25.54c3.4-.27,5.93-3.25,5.66-6.64-.24-3.02-2.64-5.41-5.66-5.66Z"/>
    <path class="cls-2" d="m319.73,474.41h-122.97c-3.4,0-6.15,2.75-6.15,6.15s2.75,6.15,6.15,6.15h49v6.15h-24.41c-3.4,0-6.15,2.75-6.15,6.15s2.75,6.15,6.15,6.15h76.86c3.4,0,6.15-2.75,6.15-6.15s-2.75-6.15-6.15-6.15h-27.48v-6.15h49c3.4,0,6.15-2.75,6.15-6.15s-2.75-6.15-6.15-6.15Z"/>
    <path class="cls-1" d="m463.36,449.82h-95c.77-2.05,1.17-4.23,1.18-6.43v-115.6l-12.32,26.95v88.65c0,3.4-2.77,6.14-6.16,6.14h-69.92l53.56-83.98c3.09-1.11,5.6-3.42,6.97-6.41l106.07-232c2.82-6.17.1-13.45-6.07-16.26-.01,0-.02-.01-.03-.02l-33.64-15.29c-6.19-2.82-13.49-.1-16.32,6.08l-1.28,2.8-5.61-2.55c-9.28-4.21-20.23-.14-24.49,9.12l-29.39,64.29c-1.41,3.1-.04,6.75,3.06,8.15,3.1,1.41,6.75.04,8.15-3.06l29.39-64.29c1.42-3.09,5.07-4.45,8.16-3.04l5.61,2.55-99.68,218.03c-1.36,2.96-1.47,6.35-.33,9.4.01.03.03.06.04.09l-30.78,103.18c-.3,1.05-.45,2.13-.46,3.21H86.12c-3.4,0-6.15-2.75-6.16-6.14V87.04c0-3.4,2.77-6.15,6.16-6.14h264.94c3.4,0,6.15,2.75,6.16,6.14v8.22c3.55-3.05,7.78-5.22,12.32-6.33v-1.89c-.01-10.19-8.29-18.45-18.48-18.43H86.12c-10.19-.01-18.47,8.24-18.48,18.43v356.36c0,2.2.4,4.37,1.18,6.43h-15.69c-3.4-.44-6.51,1.95-6.95,5.35-.44,3.4,1.95,6.51,5.35,6.95.53.07,1.07.07,1.61,0h410.24c3.4.44,6.51-1.95,6.95-5.35s-1.95-6.51-5.35-6.95c-.53-.07-1.07-.07-1.61,0Zm-60.47-343.07l33.64,15.29-10.22,22.36h0s-33.64-15.29-33.64-15.29l10.22-22.36Zm-15.34,33.54h0s33.64,15.29,33.64,15.29l-90.74,198.46-33.64-15.29,90.74-198.46Zm-91.94,211.42l25.81,11.74-54.9,86.08h-.1l29.18-97.82Z"/>
    <path class="cls-1" d="m209.99,19.42c5.09,0,9.22-4.13,9.22-9.22s-4.13-9.22-9.22-9.22-9.22,4.13-9.22,9.22c0,5.09,4.13,9.22,9.22,9.22Zm0-13.83c2.55,0,4.61,2.06,4.61,4.61s-2.06,4.61-4.61,4.61-4.61-2.06-4.61-4.61c0-2.55,2.07-4.61,4.61-4.61Z"/>
    <path class="cls-1" d="m499.81,173.13c-3.4,0-6.15,2.75-6.15,6.15s2.75,6.15,6.15,6.15,6.15-2.75,6.15-6.15c0-3.39-2.75-6.14-6.15-6.15Zm0,9.22c-1.7,0-3.07-1.38-3.07-3.07s1.38-3.07,3.07-3.07,3.07,1.38,3.07,3.07c0,1.7-1.38,3.07-3.07,3.07Z"/>
    <path class="cls-1" d="m302.73,36.56c-3.4,0-6.15,2.75-6.15,6.15s2.75,6.15,6.15,6.15,6.15-2.75,6.15-6.15c0-3.39-2.75-6.14-6.15-6.15Zm0,9.22c-1.7,0-3.07-1.38-3.07-3.07s1.38-3.07,3.07-3.07,3.07,1.38,3.07,3.07c0,1.7-1.38,3.07-3.07,3.07Z"/>
    <path class="cls-1" d="m498.04,42.71c-3.4,0-6.15,2.75-6.15,6.15s2.75,6.15,6.15,6.15,6.15-2.75,6.15-6.15c0-3.39-2.75-6.14-6.15-6.15Zm0,9.22c-1.7,0-3.07-1.38-3.07-3.07s1.38-3.07,3.07-3.07,3.07,1.38,3.07,3.07c0,1.7-1.38,3.07-3.07,3.07Z"/>
    <path class="cls-1" d="m22.46,13.27c0-3.4-2.75-6.15-6.15-6.15s-6.15,2.75-6.15,6.15,2.75,6.15,6.15,6.15h0c3.39,0,6.14-2.75,6.15-6.15Zm-9.22,0c0-1.7,1.38-3.07,3.07-3.07s3.07,1.38,3.07,3.07-1.38,3.07-3.07,3.07c-1.7,0-3.07-1.38-3.07-3.07Z"/>
    <polygon class="cls-2" points="23.73 149.31 28.31 143.29 25.42 141.66 22.49 148.39 22.39 148.39 19.4 141.71 16.47 143.39 20.99 149.26 20.99 149.36 13.92 148.44 13.92 151.71 21.04 150.8 21.04 150.89 16.47 156.76 19.21 158.49 22.34 151.71 22.43 151.71 25.32 158.44 28.35 156.71 23.73 150.94 23.73 150.84 31 151.71 31 148.44 23.73 149.4 23.73 149.31"/>
    <polygon class="cls-2" points="119.19 38.34 116.56 41.72 118.14 42.71 119.94 38.8 119.99 38.8 121.66 42.68 123.4 41.69 120.74 38.36 120.74 38.31 124.92 38.8 124.92 36.92 120.74 37.48 120.74 37.42 123.37 33.96 121.71 33.02 120.02 36.89 119.97 36.89 118.25 33.04 116.56 34.01 119.16 37.39 119.16 37.45 115.09 36.92 115.09 38.8 119.19 38.28 119.19 38.34"/>
    <polygon class="cls-2" points="478.74 122.43 478.74 119.23 471.62 120.17 471.62 120.08 476.1 114.18 473.27 112.57 470.4 119.18 470.3 119.18 467.38 112.62 464.49 114.27 468.93 120.03 468.93 120.13 461.99 119.23 461.99 122.43 468.98 121.54 468.98 121.63 464.49 127.39 467.18 129.09 470.25 122.43 470.34 122.43 473.17 129.04 476.15 127.34 471.62 121.68 471.62 121.59 478.74 122.43"/>
    <polygon class="cls-2" points="415.68 6.47 419.54 1.38 417.1 0 414.62 5.7 414.54 5.7 412.01 .04 409.53 1.46 413.36 6.43 413.36 6.51 407.37 5.74 407.37 8.5 413.4 7.73 413.4 7.81 409.53 12.78 411.85 14.24 414.5 8.5 414.58 8.5 417.02 14.2 419.58 12.74 415.68 7.85 415.68 7.77 421.82 8.5 421.82 5.74 415.68 6.55 415.68 6.47"/>
  </g>
</svg>