<?xml version="1.0" encoding="utf-8"?>
<!-- Generator: Adobe Illustrator 26.5.0, SVG Export Plug-In . SVG Version: 6.00 Build 0)  -->
<svg version="1.1" id="Layer_2_00000011745957811667199720000013492136722928162690_"
	 xmlns="http://www.w3.org/2000/svg" xmlns:xlink="http://www.w3.org/1999/xlink" x="0px" y="0px" viewBox="0 0 1851.3 387.3"
	 style="enable-background:new 0 0 1851.3 387.3;" xml:space="preserve">
<style type="text/css">
	.st0{enable-background:new    ;}
	.st1{fill:#0791CF;}
</style>
<g id="Layer_1-2">
	<g class="st0">
		<path class="st1" d="M154,280.3v12.5H25.3V99.6h126.2v12.5H39.2v75.9h98.2v12H39.2v80.3H154z"/>
		<path class="st1" d="M184.4,99.6l67.7,87.9l67.5-87.9h15.8l-75.9,97.9l73.7,95.2h-15.8l-65.3-85.2l-65.6,85.2h-16.1l73.7-95.2
			l-75.9-97.9H184.4z"/>
	</g>
	<g class="st0">
		<path class="st1" d="M491.3,280.3v12.5H362.6V99.6h126.2v12.5H376.5v75.9h98.2v12h-98.2v80.3H491.3z"/>
	</g>
	<g class="st0">
		<path class="st1" d="M511.7,194.9c0-11.6,2-23.2,6.1-34.7c4.1-11.5,10-21.8,17.8-30.9c7.8-9.1,17.4-16.5,28.7-22.2
			c11.3-5.7,24.3-8.6,38.8-8.6c17.2,0,31.9,3.9,44.1,11.8c12.1,7.9,21.2,18,27.2,30.3l-11.4,6.5c-3.4-6.7-7.5-12.3-12.1-16.9
			c-4.6-4.5-9.6-8.2-15-11c-5.4-2.8-10.9-4.9-16.7-6.1c-5.8-1.3-11.5-1.9-17.1-1.9c-12.3,0-23.2,2.5-32.6,7.5
			c-9.4,5-17.4,11.5-23.9,19.5c-6.5,8-11.5,17-14.8,27.1c-3.4,10.1-5,20.2-5,30.3c0,11.4,2,22.3,6,32.6c4,10.3,9.4,19.5,16.3,27.3
			c6.9,7.9,15.1,14.2,24.5,18.9c9.4,4.7,19.6,7.1,30.5,7.1c5.8,0,11.8-0.7,18-2.2c6.2-1.5,12.1-3.7,17.7-6.8
			c5.6-3.1,10.9-7,15.8-11.8c4.9-4.8,9-10.5,12.2-17l12,5.7c-3.3,7.3-7.7,13.7-13.3,19.3c-5.6,5.6-11.9,10.3-18.8,14.1
			c-6.9,3.8-14.2,6.7-21.9,8.6c-7.7,1.9-15.3,2.9-22.7,2.9c-13.2,0-25.3-2.9-36.3-8.7c-11-5.8-20.5-13.4-28.4-22.7
			c-8-9.3-14.2-19.9-18.6-31.8C513.9,219.3,511.7,207.2,511.7,194.9z"/>
		<path class="st1" d="M790.3,281.4c13.1,0,23.9-2.4,32.5-7.3c8.6-4.9,15.4-11.3,20.4-19.3c5-8,8.5-17,10.6-27.2
			c2.1-10.2,3.1-20.4,3.1-30.7V99.6h13.9v97.1c0,12.9-1.4,25.2-4.2,37c-2.8,11.8-7.4,22.2-13.7,31.2c-6.4,9-14.6,16.1-24.8,21.4
			c-10.2,5.3-22.7,7.9-37.5,7.9c-15.4,0-28.3-2.8-38.6-8.3c-10.3-5.5-18.6-12.9-24.9-22c-6.3-9.2-10.7-19.5-13.3-31.1
			c-2.6-11.6-3.9-23.6-3.9-35.9V99.6h13.9v97.1c0,10.7,1,21.1,3.1,31.3c2.1,10.2,5.7,19.2,10.9,27.1s12,14.2,20.5,19
			C766.7,279,777.4,281.4,790.3,281.4z"/>
		<path class="st1" d="M1053.4,112.2h-70.7v180.6h-13.9V112.2H898V99.6h155.3V112.2z"/>
		<path class="st1" d="M1083.3,292.8V99.6h13.9v193.2H1083.3z"/>
		<path class="st1" d="M1141.2,99.6l73.5,175.7l73.5-175.7h14.7l-81.6,193.2h-12.8l-81.9-193.2H1141.2z"/>
		<path class="st1" d="M1461.2,280.3v12.5h-128.7V99.6h126.2v12.5h-112.4v75.9h98.2v12h-98.2v80.3H1461.2z"/>
	</g>
	<g>
		<path class="st1" d="M1779,240.9c1.8-4.7,2.5-10,2.5-15.2c0-23.2-15.7-41.7-39.9-41.7s-39.9,18.5-39.9,41.7s15.7,41.7,39.9,41.7
			h1.5l-13.7-17.2l35-28L1779,240.9L1779,240.9z"/>
		<path class="st1" d="M1774.2,306.5c-10,3.5-21,5.2-32.7,5.2c-51.4,0-91.1-35-91.1-86.1c0-3.9,0.2-7.6,0.7-11.3v-50.2h-59.7v63.7
			H1541V82.3l-25.1,14.5v193.6l167.7,96.8l106.4-61.4L1774.2,306.5L1774.2,306.5z"/>
		<path class="st1" d="M1683.6,0l-92.2,53.2v67h59.7V61.3h50.4v86.1c12-5.1,25.5-7.9,40-7.9c51.4,0,91.1,34.9,91.1,86.1
			c0,22.5-7.7,41.9-20.7,56.4l17.3,21.2l22.1-12.8V96.8L1683.6,0z"/>
	</g>
</g>
</svg>
