<?xml version="1.0" encoding="utf-8"?>
<!-- Generator: Adobe Illustrator 26.5.0, SVG Export Plug-In . SVG Version: 6.00 Build 0)  -->
<svg version="1.1" id="Layer_2_00000000195045721032746540000015242959802956853434_"
	 xmlns="http://www.w3.org/2000/svg" xmlns:xlink="http://www.w3.org/1999/xlink" x="0px" y="0px" viewBox="0 0 1382.8 387.3"
	 style="enable-background:new 0 0 1382.8 387.3;" xml:space="preserve">
<style type="text/css">
	.st0{enable-background:new    ;}
	.st1{fill:#1C5A32;}
</style>
<g id="Layer_1-2">
	<g>
		<g class="st0">
			<path class="st1" d="M137.7,135.4c-12.5-14-30.2-20.9-53-20.9c-18.9,0-32.6,3.6-41.2,10.7c-8.6,7.2-12.9,16.8-12.9,29
				c0,6.2,1.1,11.3,3.3,15.4c2.2,4.1,5.6,7.6,10.2,10.5c4.6,2.9,10.5,5.4,17.5,7.3c7.1,2,15.6,4.1,25.6,6.3
				c10.3,2.2,19.7,4.6,28.2,7.2c8.4,2.6,15.6,5.9,21.5,9.9c5.9,4,10.4,8.9,13.6,14.7c3.2,5.8,4.8,13,4.8,21.5c0,8.5-1.7,16-5,22.3
				c-3.4,6.4-8.1,11.7-14.1,15.9c-6.1,4.3-13.3,7.5-21.8,9.7c-8.4,2.2-17.8,3.3-28.2,3.3c-30.1,0-55.6-9.6-76.4-28.8l7.3-11.2
				c8.2,8.5,18.1,15.3,29.9,20.3c11.8,5,25,7.5,39.7,7.5c16.9,0,30.1-3.1,39.6-9.2c9.5-6.2,14.3-15.5,14.3-28
				c0-6.3-1.3-11.7-3.8-16.2c-2.5-4.4-6.3-8.3-11.3-11.6c-5-3.3-11.3-6.1-18.9-8.4c-7.6-2.4-16.5-4.6-26.7-6.8
				c-10.3-2.2-19.5-4.5-27.3-6.9s-14.5-5.5-19.9-9.2c-5.4-3.7-9.4-8.2-12.1-13.5c-2.7-5.3-4.1-11.9-4.1-19.9c0-8.7,1.7-16.4,5-23.1
				c3.4-6.7,8-12.4,14-17c6-4.6,13.1-8.1,21.5-10.5c8.3-2.4,17.6-3.5,27.7-3.5c12.5,0,23.7,1.9,33.5,5.6c9.8,3.7,18.7,9.4,26.7,17
				L137.7,135.4z"/>
		</g>
		<g class="st0">
			<path class="st1" d="M247.3,103.3h12l81.6,193.2h-14.7l-26.9-63.7H207l-26.9,63.7h-15L247.3,103.3z M295.5,221.4l-42.2-101.2
				l-43,101.2H295.5z"/>
			<path class="st1" d="M370.3,296.5V103.3h125.7v12.5H384.1v76.7h94.9v12h-94.9v92H370.3z"/>
			<path class="st1" d="M660.5,284v12.5H531.9V103.3h126.2v12.5H545.7v75.9h98.2v12h-98.2V284H660.5z"/>
			<path class="st1" d="M833.3,115.8h-70.7v180.6h-13.9V115.8h-70.7v-12.5h155.3V115.8z"/>
		</g>
		<g class="st0">
			<path class="st1" d="M858.3,103.3l67.5,106.9l67.7-106.9h15.5l-76.2,120.2v72.9H919V223l-75.9-119.7H858.3z"/>
		</g>
		<g>
			<path class="st1" d="M1310.5,240.9c1.8-4.7,2.5-10,2.5-15.2c0-23.2-15.7-41.7-39.9-41.7s-39.9,18.5-39.9,41.7
				s15.7,41.7,39.9,41.7h1.5l-13.7-17.2l35-28L1310.5,240.9L1310.5,240.9z"/>
			<path class="st1" d="M1305.8,306.5c-10,3.5-21,5.2-32.7,5.2c-51.4,0-91.1-35-91.1-86.1c0-3.9,0.2-7.6,0.7-11.3v-50.2h-59.7v63.7
				h-50.4V82.3l-25.1,14.5v193.6l167.7,96.8l106.4-61.4L1305.8,306.5L1305.8,306.5z"/>
			<path class="st1" d="M1215.2,0L1123,53.2v67h59.7V61.3h50.4v86.1c12-5.1,25.5-7.9,40-7.9c51.4,0,91.1,34.9,91.1,86.1
				c0,22.5-7.7,41.9-20.7,56.4l17.3,21.2l22.1-12.8V96.8L1215.2,0z"/>
		</g>
	</g>
</g>
</svg>
