<?xml version="1.0" encoding="utf-8"?>
<!-- Generator: Adobe Illustrator 26.5.0, SVG Export Plug-In . SVG Version: 6.00 Build 0)  -->
<svg version="1.1" id="Layer_2_00000147207814883570044610000011975429894151121569_"
	 xmlns="http://www.w3.org/2000/svg" xmlns:xlink="http://www.w3.org/1999/xlink" x="0px" y="0px" viewBox="0 0 334.1 385.8"
	 style="enable-background:new 0 0 334.1 385.8;" xml:space="preserve">
<style type="text/css">
	.st0{fill:#0A0AF9;}
</style>
<g id="Layer_1-2">
	<g>
		<g>
			<path class="st0" d="M262,239.9c1.7-4.7,2.5-9.9,2.5-15.2c0-23.1-15.7-41.5-39.8-41.5s-39.8,18.4-39.8,41.5s15.7,41.5,39.8,41.5
				h1.5L212.5,249l34.8-27.9L262,239.9L262,239.9z"/>
			<path class="st0" d="M257.3,305.3c-9.9,3.5-20.9,5.2-32.6,5.2c-51.2,0-90.8-34.8-90.8-85.8c0-3.9,0.2-7.6,0.7-11.3v-50H75.2v63.4
				H25V82L0,96.4v192.9l167,96.4l106-61.2L257.3,305.3L257.3,305.3z"/>
			<path class="st0" d="M167,0L75.2,53v66.7h59.4V61h50.2v85.8c11.9-5.1,25.4-7.9,39.8-7.9c51.2,0,90.8,34.8,90.8,85.8
				c0,22.4-7.7,41.8-20.6,56.2L312,302l22-12.7V96.4L167,0z"/>
		</g>
	</g>
</g>
</svg>
